<?xml version="1.0" encoding="utf-8"?><svg xmlns="http://www.w3.org/2000/svg" xmlns:xlink="http://www.w3.org/1999/xlink"><symbol viewBox="0 0 112 112" id="Make_Website_Hands_F4-01"><title>Make Website Hands F4</title><path d="M83.41 60.58c-3.66-5.93-9.51-8.23-13.78-9.9-2-.77-3.83-1.5-4.31-2.22-.69-1 2.21-3.58 5-6 1.88-1.64 4-3.5 6-5.63 2.74-2.92 3.57-7.25 2.28-11.89-1.36-4.88-4.79-9-8.33-10C63.53 13 61.92 18.6 59.48 27L59 28.8c-2.43 8.29-7.47 10.34-15.1 13.43l-1.59.65A16 16 0 0 0 36 47.74a4 4 0 0 0-3.28-2c-5.3-.45-9.35 8.18-10.87 16.39-1.31 7-.48 14.63 1.92 17.65a3.7 3.7 0 0 0 2.76 1.56h.24a4 4 0 0 0 2.92-1.14 17.45 17.45 0 0 0 5.88 8 16 16 0 0 0 .61 1.55 17.44 17.44 0 0 0 7.95 8.15 17.59 17.59 0 0 0 7.93 2.19 9.85 9.85 0 0 0 4.78-1.16 9.47 9.47 0 0 0 4.62-6.39 17.75 17.75 0 0 0 4.7.7 10.38 10.38 0 0 0 7.71-3c2.66-2.74 3.57-7 2.49-11.25A9.78 9.78 0 0 0 84.17 74c2.2-3.84 1.9-9.11-.76-13.42zm-27.7 36.21c-2.65 1.44-6.27 1.08-10.48-1.06a14.8 14.8 0 0 1-6.86-7 13.57 13.57 0 0 1-.64-1.73c-1-3.31-.59-6.57 1.11-8.51 1.38-1.57 3.5-2.17 6.12-1.72a8.45 8.45 0 0 1 2.28.75c.78 6 5.13 11.43 11.23 14l.72.27a7.17 7.17 0 0 1-3.48 5zm16.45-8.28c-2.42 2.5-6.42 3-11.26 1.32q-.74-.25-1.52-.57a15.56 15.56 0 0 1-9.83-12.5 7.91 7.91 0 0 1 1.91-6.46 7.08 7.08 0 0 1 5.48-1.83 21.19 21.19 0 0 0 10.33 8.82 21.41 21.41 0 0 0 6.59 1.66c1.14 3.61.5 7.3-1.69 9.57zm9.92-15.68c-1.42 2.49-4 3.83-7.3 3.78a18.26 18.26 0 0 1-6.59-1.54 18.92 18.92 0 0 1-9.48-8.33c-1.68-3.18-1.89-6.4-.56-8.4 1.13-1.7 3.33-2.46 6.34-2.2a13.85 13.85 0 0 1 6 1.76 1.2 1.2 0 0 0 1.36-2 15.87 15.87 0 0 0-7.16-2.18c-3.89-.34-6.92.81-8.55 3.26s-1.67 5.66-.36 9.07a9 9 0 0 0-6 2.52 9.58 9.58 0 0 0-2.63 6.27 12.76 12.76 0 0 0-1.77-.47c-3.45-.58-6.42.31-8.34 2.5a10.16 10.16 0 0 0-2.21 7.26A16.19 16.19 0 0 1 31 76c0-2-.35-4.16 0-6.33a1.2 1.2 0 1 0-2.36-.41 20.6 20.6 0 0 0 0 7 3.36 3.36 0 0 1-.64 2.3 1.69 1.69 0 0 1-1.35.42 1.44 1.44 0 0 1-1-.65c-1.95-2.45-2.6-9.5-1.44-15.72 1.52-8.22 5.24-14.69 8.31-14.43a1.94 1.94 0 0 1 1.79 1.93A33.71 33.71 0 0 0 30.23 60a1.2 1.2 0 1 0 2.35.49 31.4 31.4 0 0 1 4-9.47 14.84 14.84 0 0 1 6.61-5.89l1.59-.65c8-3.23 13.75-5.57 16.5-15l.52-1.78c2.56-8.9 3.58-11.7 7.83-10.46 2.74.77 5.54 4.26 6.67 8.31 1.06 3.81.44 7.31-1.71 9.6-1.92 2-4 3.87-5.83 5.47-4.07 3.56-7.28 6.37-5.43 9.16.9 1.36 2.9 2.14 5.43 3.13 4 1.55 9.38 3.68 12.62 8.93 2.19 3.57 2.47 7.89.7 10.99z" fill="#0a0a0a"/><path d="M52.49 59.57a1.2 1.2 0 0 0-1.65.38c-1.64 2.59-5.58 6.87-13.6 6.5a1.2 1.2 0 1 0-.12 2.4h1.13c8.48 0 12.78-4.74 14.61-7.65a1.2 1.2 0 0 0-.37-1.63z" fill="#0a0a0a"/></symbol><symbol viewBox="0 0 112 112" id="Make_Website_Hands_F4-02"><title>Make Website Hands F4</title><path d="M93 47.82a16.87 16.87 0 0 0-4.62-9.39A14.63 14.63 0 0 0 86.74 37c.15-5.63-2.71-11.15-9.31-14.64a5.33 5.33 0 0 0 1.85-2.44c4.58-12.22-43.2-12-38.08.28a5 5 0 0 0 2.39 2.36c-5.63 3.45-8.48 8.75-9.85 14-3.92 15 1.28 24.82 8.92 30.12 1.09 13.5-1.37 40.9 9.87 43.13 17.06 3.4 12-25.59 9-38.63a15.9 15.9 0 0 0 4.15-1.27 11.51 11.51 0 0 0 1.55 1.5c6.45 6.53 17.19 5.07 16.71-10.69 5.36 1.09 10.66-2.66 9.06-12.9z" fill="#fff"/><path d="M94.22 47.63a17.91 17.91 0 0 0-5-10.06 15.91 15.91 0 0 0-1.33-1.18c-.05-5.82-3.11-10.94-8.53-14.3a7.19 7.19 0 0 0 1-1.77c1-2.54.12-4.93-2.34-6.73-7.43-5.43-29-5.24-36 .3-2.33 1.84-3 4.23-2 6.75a5.53 5.53 0 0 0 1.38 1.89 23.83 23.83 0 0 0-8.89 13.71c-4.66 17.81 3.36 27 8.92 31.07.2 2.73.26 6 .34 9.47.36 14.39.72 32.22 10.52 34.22a14.58 14.58 0 0 0 2.85.3 8.86 8.86 0 0 0 6.64-2.67c6.24-6.44 4.17-23.15 1.16-36.51a16.84 16.84 0 0 0 2.4-.76 11.67 11.67 0 0 0 1.06 1 12.53 12.53 0 0 0 8.67 3.95 8.77 8.77 0 0 0 3.47-.7C81 74.5 85 71.35 85.11 62.07h.56a8.26 8.26 0 0 0 5.78-2.23c1.84-1.73 3.83-5.29 2.77-12.21zM60 106.95c-1.72 1.77-4.1 2.32-7.29 1.69-7.9-1.57-8.26-19.09-8.52-31.88-.01-2.76-.07-5.45-.19-7.83a28.54 28.54 0 0 0 13.85 3.74 23.3 23.3 0 0 0 2.7-.17c3.95 17.5 3.77 30.03-.55 34.45zm5.08-38.12A14.68 14.68 0 0 1 61.29 70a25.3 25.3 0 0 1-17.95-4.3c-5-3.51-12.86-11.92-8.44-28.83 1.57-6 4.7-10.46 9.32-13.3a26.46 26.46 0 0 1 11.32-3.52 1.2 1.2 0 0 0-.24-2.39 29.26 29.26 0 0 0-11.71 3.5 3.66 3.66 0 0 1-1.28-1.44c-.4-1-.7-2.4 1.25-3.94 6.16-4.86 26.57-5 33.09-.25 2.1 1.53 1.87 3 1.51 3.95a4.72 4.72 0 0 1-.91 1.45A32.51 32.51 0 0 0 69 18.27a1.2 1.2 0 1 0-.44 2.36 29.5 29.5 0 0 1 8.34 2.77c5 2.64 8 6.63 8.56 11.38a9.34 9.34 0 0 0-7.85-.69c-2.54 1.07-4.2 3.55-4.66 7v1.31a8.72 8.72 0 0 0-7.16 1.46 10 10 0 0 0-3.45 4.76 37.55 37.55 0 0 0-4.47-1.72 11.11 11.11 0 0 0 2.39-9A12.16 12.16 0 0 0 57 31.72a1.2 1.2 0 0 0-1.72 1.67 9.83 9.83 0 0 1 2.65 5 9 9 0 0 1-2.59 7.84c-5.17-1.33-10.34-1.62-13.28-.56a1.2 1.2 0 0 0 .82 2.26c3.63-1.31 12.79-.12 19.6 3.44 4.89 2.56 10 7 6.55 13.9a8 8 0 0 1-3.91 3.56zm12.47 4.53c-2.9 1.24-6.65.15-9.55-2.79l-.14-.12-.31-.26a9.91 9.91 0 0 0 3.57-3.83c3.2-6.36.74-12.38-6.71-16.62a7.81 7.81 0 0 1 2.7-3.93 6.33 6.33 0 0 1 5.25-1.07 8 8 0 0 1 1.37.49 12.27 12.27 0 0 1 3.54 2.58 19.35 19.35 0 0 1 5.39 13c.24 6.47-1.66 11.07-5.07 12.54zm12.2-15.22A6 6 0 0 1 85 59.67a21.67 21.67 0 0 0-6-13.56 15.13 15.13 0 0 0-3.63-2.75 20.1 20.1 0 0 1-.08-2c.36-2.56 1.47-4.29 3.21-5 2.08-.88 5-.25 7.51 1.64a13.38 13.38 0 0 1 1.53 1.33 15.53 15.53 0 0 1 4.3 8.67c.71 4.6-.02 8.2-2.05 10.13z" fill="#0a0a0a"/></symbol><symbol viewBox="0 0 112 112" id="Make_Website_Hands_F4-03"><title>Make Website Hands F4</title><g data-name="&lt;Gruppe>"><path d="M89.07 85.09a5 5 0 0 0-3.14-1.2c3.77-5.42 4.26-11.41 3.41-16.79-2.41-15.3-11.12-22.22-20.24-24C62.7 31.14 54 5.06 42.78 7.51c-17 3.72-.74 28.25 7.26 39a15.9 15.9 0 0 0-3.29 2.82 11.5 11.5 0 0 0-2-.75c-8.53-3.4-17.78 2.24-11 16.49-5.38 1.16-8.74 6.72-3.2 15.48a16.87 16.87 0 0 0 8 6.75 14.62 14.62 0 0 0 2.11.66c2.12 5.22 6.95 9.13 14.39 9.68a5.33 5.33 0 0 0-.71 3c.66 13.01 44.33-6.36 34.73-15.55z" fill="#fff"/><path d="M89.9 84.22a5.52 5.52 0 0 0-2-1.18 23.82 23.82 0 0 0 2.65-16.13C87.66 48.73 76.62 43.5 69.9 42c-1.27-2.42-2.65-5.4-4.1-8.54-6-13-13.51-29.28-23.28-27.14-4 .87-6.59 2.88-7.74 6-3.14 8.4 5.46 22.88 13.56 33.92a16.87 16.87 0 0 0-1.89 1.66 11.6 11.6 0 0 0-1.35-.46c-4.74-1.86-9.61-1.12-12.43 1.89-1.83 2-4.24 6.45-.61 15a8.35 8.35 0 0 0-4.93 4.55c-1 2.36-1.38 6.41 2.36 12.32a17.91 17.91 0 0 0 8.57 7.23 15.86 15.86 0 0 0 1.69.55c2.38 5.31 7.24 8.77 13.55 9.69a7.21 7.21 0 0 0-.21 2c.15 2.71 1.87 4.57 4.84 5.23a13.54 13.54 0 0 0 2.91.29c9.76 0 26.13-7.86 29.95-15 1.39-2.6 1.08-5.08-.89-6.97zM37 13.15c.86-2.31 2.83-3.77 6-4.46C50.91 7 58.25 22.87 63.61 34.48c1.17 2.52 2.28 4.93 3.39 7.06a27.91 27.91 0 0 0-16.6 3.35C39.75 30.45 34.89 18.91 37 13.15zM34.42 51c2.16-2.3 6-2.8 9.86-1.27l.17.05.38.11a9.92 9.92 0 0 0-1.73 4.94c-.38 7.12 4.28 11.64 12.81 12.54A7.79 7.79 0 0 1 55 72a6.33 6.33 0 0 1-4.37 3.08 7.94 7.94 0 0 1-1.45.1 12.24 12.24 0 0 1-4.27-.94 19.36 19.36 0 0 1-10.12-9.71C32 58.65 31.86 53.7 34.42 51zm6.46 35.81a13.54 13.54 0 0 1-1.94-.6 15.52 15.52 0 0 1-7.42-6.28C29 76 28.26 72.38 29.34 69.8a5.94 5.94 0 0 1 3.75-3.31A21.67 21.67 0 0 0 44 76.5a15.09 15.09 0 0 0 4.43 1.06c.42.76.79 1.59.88 1.82.69 2.48.37 4.52-.92 5.89-1.53 1.64-4.39 2.21-7.51 1.51zm47.78 3.29C85 97 66.34 105.3 58.45 103.55c-2.54-.56-2.9-2-3-3a4.71 4.71 0 0 1 .25-1.68h1.08a33.66 33.66 0 0 0 7.6-.87 1.2 1.2 0 1 0-.54-2.35 29.46 29.46 0 0 1-8.75.8c-5.64-.42-10-2.88-12.4-7h.76a9.07 9.07 0 0 0 6.71-2.56c1.9-2 2.42-4.94 1.47-8.27v-.13s-.2-.49-.48-1.07a8.73 8.73 0 0 0 6-4.21 10 10 0 0 0 1.25-5.74 37.52 37.52 0 0 0 4.77-.21 11.12 11.12 0 0 0 1.41 9.2A12.18 12.18 0 0 0 70 80.84a1.2 1.2 0 0 0 .91-2.23 9.82 9.82 0 0 1-4.41-3.48 9 9 0 0 1-.77-8.21c5.21-.88 10-2.68 12.33-4.84a1.2 1.2 0 1 0-1.66-1.75C73.6 63 64.74 65.57 57.08 65c-5.5-.39-12-2.45-11.56-10.11a8 8 0 0 1 2.15-4.81 14.68 14.68 0 0 1 3-2.61 25.28 25.28 0 0 1 18.17-3.25c6 1.19 16.56 5.77 19.28 23 1 6.12-.12 11.47-3.21 15.91A26.45 26.45 0 0 1 76 91a1.2 1.2 0 1 0 1.18 2.1 29.25 29.25 0 0 0 9.33-7.9 3.66 3.66 0 0 1 1.75.81c.74.66 1.57 1.87.4 4.06z" fill="#0a0a0a"/></g></symbol><symbol viewBox="0 0 112 112" id="Make_Website_Hands_F4-04"><title>Make Website Hands F4</title><path d="M75.54 50.07c11.88-3.24 14.45 12 13.89 20.61-.51 7.91-3.8 16.53-10.19 21.47a4.86 4.86 0 0 1 2.24 1.93c6.24 11.43-40.3 16.54-37.08 4.16a5.23 5.23 0 0 1 1.55-2.57v-.09C39.33 93.85 35.14 90 31.28 85c-5.62-7.31-9.95-24.7-.6-31.1 4.3-2.94 7.74-2.47 9.93-1.51h.16c-1.43-9.06-4.93-19.64-5.84-26.61-.87-6.67-.82-16.94 8-18.21 9.47-1.36 12.31 10.24 13.42 17.24s1.47 13.5 2.22 20.19a10.52 10.52 0 0 1 7.86-3.16c5.14.33 7.84 3.95 9.11 8.23z" fill="#fff"/><path d="M54.68 69.14a1.2 1.2 0 0 0-.59 1.59 25.65 25.65 0 0 1 2.35 12.89 1.2 1.2 0 0 0 1 1.36h.17a1.2 1.2 0 0 0 1.19-1 27.57 27.57 0 0 0-2.54-14.23 1.2 1.2 0 0 0-1.58-.61zm11.6-4.42a1.2 1.2 0 0 0-.82 1.49c1.55 5.33-.76 12.53-.78 12.6a1.2 1.2 0 1 0 2.28.75c.11-.32 2.57-8 .8-14a1.2 1.2 0 0 0-1.48-.84zm10 6.09a1.2 1.2 0 0 0-2.39.23c.68 7.22-3.39 13.24-3.43 13.3a1.2 1.2 0 0 0 2 1.36 24.49 24.49 0 0 0 3.86-14.89zm14.3-.05c.35-5.41-.51-15.75-6-20.22a9.66 9.66 0 0 0-8.3-1.88c-1.78-5-5.15-7.71-9.81-8a11.6 11.6 0 0 0-7 2c-.16-1.6-.31-3.19-.45-4.74-.39-4.29-.8-8.72-1.53-13.37-2.02-13.19-7-19.32-14.71-18.21-7.33 1.06-10.54 8-9 19.55a121.11 121.11 0 0 0 2.75 12.65c1 4 2 8.19 2.76 12.13-2.37-.53-5.54-.32-9.25 2.22-3.1 2.12-5 5.4-5.71 9.75-1.3 8.2 2.14 18 6 23.07 3.08 4 7.1 8.31 13.62 10.51a7 7 0 0 0-.72 1.71c-.67 2.58.39 4.84 3 6.34 2.79 1.62 7.25 2.36 12.13 2.36 8.78 0 18.9-2.39 22.94-6.33 2.09-2 2.53-4.45 1.25-6.81A5.25 5.25 0 0 0 81.26 92c5.34-4.82 8.8-12.62 9.36-21.25zM73 95.41a1.2 1.2 0 0 0 1.54.71 20.56 20.56 0 0 0 4.76-2.55 3.37 3.37 0 0 1 1.1 1.09c.48.88.92 2.25-.81 3.94-5.5 5.36-25.36 7.59-32.19 3.62-2.19-1.27-2.11-2.7-1.86-3.66a4.52 4.52 0 0 1 .84-1.63 36.16 36.16 0 0 0 8.31.89 1.2 1.2 0 0 0 0-2.4 33.12 33.12 0 0 1-8.43-1c-6.84-1.79-10.79-5.94-14-10.17-3.64-4.73-6.72-14-5.56-21.23.58-3.67 2.16-6.42 4.69-8.15 3.59-2.45 6.45-2.27 8.34-1.57 1.19 8.23.19 12.89-3.17 14.62a1.2 1.2 0 0 0 1.1 2.13C43.55 67 42.93 58.38 42 52.16c-.72-4.59-2-9.48-3.14-14.21a119.59 119.59 0 0 1-2.69-12.37c-.92-7.1-.46-15.8 7-16.87C49.3 7.83 53.34 13.29 55.18 25c.72 4.57 1.12 9 1.51 13.21.21 2.28.43 4.64.69 7 .34 3.08.71 5.69 1.16 8.22A1.2 1.2 0 1 0 60.9 53c-.41-2.3-.75-4.69-1.07-7.45a9.41 9.41 0 0 1 6.55-2.44c3.94.23 6.63 2.7 8 7.34a22.91 22.91 0 0 1 .86 5.42A1.2 1.2 0 0 0 76.45 57h.05a1.2 1.2 0 0 0 1.14-1.25A26.38 26.38 0 0 0 77 51a7.21 7.21 0 0 1 6.11 1.43c4.1 3.35 5.52 11.78 5.11 18.2-.55 8.6-4.22 16.3-9.72 20.57a18.19 18.19 0 0 1-4.77 2.66 1.2 1.2 0 0 0-.73 1.55z" fill="#0a0a0a"/></symbol><symbol viewBox="0 0 48 48" id="Make_Website_Icons_F4_Black-01"><title>Make Website Icons F4 Black</title><path d="M8 26h32v-4H8v4zm0 10h32v-4H8v4zm0-24v4h32v-4H8z"/></symbol><symbol viewBox="0 0 48 48" id="Make_Website_Icons_F4_Black-02"><title>Make Website Icons F4 Black</title><path d="M36.41 14.41l-2.82-2.82L24 21.17l-9.59-9.58-2.82 2.82L21.17 24l-9.58 9.59 2.82 2.82L24 26.83l9.59 9.58 2.82-2.82L26.83 24l9.58-9.59z"/></symbol><symbol id="Make_Website_Icons_F4_White-01" viewBox="0 0 48 48"><defs><style>.cls-1,.cls-2{fill:none}.gcls-2{stroke:#fff;stroke-miterlimit:10;stroke-width:4px}</style></defs><title>Make Website Icons F4 White</title><path class="gcls-1" d="M0 0h48v48H0z"/><path class="gcls-2" d="M8 24h32M8 14h32M8 34h32"/></symbol><symbol id="Make_Website_Icons_F4_White-02" viewBox="0 0 48 48"><defs><style>.cls-1,.cls-2{fill:none}.hcls-2{stroke:#fff;stroke-miterlimit:10;stroke-width:4px}</style></defs><title>Make Website Icons F4 White</title><path class="hcls-1" d="M0 0h48v48H0z"/><path class="hcls-2" d="M13 13l22 22M35 13L13 35"/></symbol><symbol viewBox="0 0 320 384" id="Make_Website_Victory_F4-01"><title>Make Website Victory F4</title><g data-name="Victory 1"><path d="M267.83 263.72c-.72-31.56-10-56.58-27.45-74.38A84.88 84.88 0 0 0 211 170c7.07-21.42 28.68-94.2 7.7-125.31-6-9-15-13.81-26.69-14.44-8.34-.45-15.48 2-21.24 7.27-17.15 15.7-18.45 53.14-19.49 83.21-.32 9.29-.63 18.06-1.4 24.54-.9 7.5-2.16 9.5-2.62 10-.56-.4-2.22-2.1-4.75-9.18-2.18-6.11-4.42-14.53-6.79-23.44-7.8-29.12-17.45-65.41-37.72-76.88-6.76-3.83-14.22-4.62-22.19-2.33-11.31 3.24-19 10-22.86 20.23-6.38 16.84-2.08 42.56 12.79 76.46a394.51 394.51 0 0 0 21.27 41.2c-14.74-2-28.18 3.11-34.91 13.41-4.43 6.78-9.22 21 3.81 43.49-8.44 3.63-14.55 10.08-17 18.19-2.65 8.66-2.47 23 13.47 42.33a62.83 62.83 0 0 0 33 21.35l.62.13c8.05 15 18.71 25.26 32.57 31.44 9.8 4.37 21.19 6.56 34.05 6.56 11.68 0 24.57-1.8 38.62-5.41 35.66-9.15 77.89-32.04 76.59-89.1zM59.54 66.15c3.08-8.12 9-13.34 18.24-16 6.22-1.75 11.68-1.2 16.81 1.71 17.67 10 27.29 46.21 34.32 72.63 6.49 24.41 10.42 39.14 19.36 37.84 8.58-1.36 9.1-16.4 10-41.31.94-27.25 2.23-64.58 17.22-78.29 4.38-4 9.66-5.79 16.13-5.44 9.5.51 16.45 4.23 21.26 11.36 19.24 28.52-2.53 100.79-8.51 119.07a95.66 95.66 0 0 0-20.37-3.94c-16.7-1.38-33.32 1.44-46.8 8-10.24 4.94-17.77 11.62-22 19.32a69.35 69.35 0 0 0-18.8-7.84C78.37 154.53 48.59 95 59.54 66.15zM58 198.56c5.69-8.7 17.94-12.54 31.21-9.79h.14s1.27.22 3.22.68a3.51 3.51 0 0 0 1.71.45h.07c4.81 1.26 12.19 3.68 18.11 7.72-.25.86-.47 1.73-.63 2.61-3.23 17 2.59 30.76 16.83 39.82a57.77 57.77 0 0 0 9.38 4.74c.37 11.12-4.21 18.73-13.33 22.07-15.39 5.64-41.87-2.17-57.82-24.62-12.4-17.43-15.64-33.36-8.89-43.68zm-.22 95.72c-10.89-13.18-15.22-25.9-12.18-35.82 2-6.41 7.05-11.49 14.13-14.23.47.69.94 1.38 1.44 2.08 12.76 18 34.25 29.35 52.78 29.35.85 0 1.69 0 2.52-.08 1.69 1.53 3.92 5.46 5 7.89 4 9.38 3.52 17.38-1.42 23.15-6.44 7.52-19.36 10.14-32.92 6.69a55.86 55.86 0 0 1-29.34-19.03zM189.5 346c-45.76 11.75-76.79 3.77-94.58-24.4 1.24.09 2.46.15 3.67.15 11.07 0 20.88-3.74 26.77-10.61 6.69-7.82 7.6-18.63 2.53-30.5a45.09 45.09 0 0 0-3.49-6.37c.92-.25 1.82-.53 2.71-.86 11.15-4.09 17.49-13.51 17.9-26.22a116.34 116.34 0 0 0 28.83 4.34c-.88 7.86-.89 25.23 13.1 38.45 10.1 9.55 23.37 13.21 34.84 13.21 7.35 0 14-1.5 18.54-3.91a3.5 3.5 0 1 0-3.26-6.2c-15.17 8-36.42.22-45.32-8.19-12.1-11.44-11.59-27.18-10.84-33.3 19.51-.32 37.85-4.52 46.61-10.84a3.5 3.5 0 1 0-4.1-5.68c-7.49 5.4-25.86 9.59-45.31 9.62h-.2c-12.06 0-24.52-1.59-35.05-5.49a3.45 3.45 0 0 0-.48-.19 54.62 54.62 0 0 1-10-4.9c-11.78-7.5-16.4-18.47-13.71-32.61 3.73-19.62 32.75-33.44 64.69-30.8a88.28 88.28 0 0 1 21.22 4.4 3.19 3.19 0 0 0 1.58.56 78.25 78.25 0 0 1 29.2 18.52c16.21 16.49 24.77 39.92 25.45 69.63.99 42.19-23.01 69.84-71.3 82.19z" fill="#eee"/><path d="M236.11 192.08c14.08-17.62 59.68-78.31 50.89-114.78-2.54-10.49-9.27-18.17-20-22.83-7.66-3.32-15.21-3.52-22.44-.58-21.55 8.75-35.8 43.39-47.25 71.22-3.53 8.59-6.87 16.71-9.86 22.51-3.45 6.71-5.33 8.16-5.94 8.46-.39-.57-1.35-2.74-1.26-10.26.08-6.49.92-15.16 1.8-24.34 2.88-30 6.47-67.42-8.49-85.21-5-5.94-11.73-9.28-20-9.91-11.73-.9-21.31 2.8-28.47 11-11.85 13.56-16.77 39.17-14.63 76.13a394.59 394.59 0 0 0 5.59 46c-13.13-7-27.5-6.9-37.4.41-6.52 4.81-15.94 16.44-11.57 42.09-9.18.46-17.15 4.38-22.31 11.12-5.5 7.2-10.34 20.74-2.11 44.38A62.81 62.81 0 0 0 66.16 289l.52.35c2.34 16.82 8.75 30.19 19.58 40.8 14.63 14.33 37.41 23.21 67.72 26.38a158.27 158.27 0 0 0 16.48.89c33.3 0 70.39-11.62 86.34-57.75 10.32-29.83 10.37-56.51.17-79.28a84.88 84.88 0 0 0-20.86-28.31zM130.34 42c5.71-6.54 13.12-9.36 22.66-8.63 6.41.49 11.37 2.92 15.17 7.44 13.08 15.55 9.5 52.82 6.88 80-2.42 25.14-3.87 40.32 5 42.21 8.51 1.71 14.24-12.2 23.72-35.26 10.37-25.22 24.58-59.76 43.4-67.4 5.5-2.23 11.07-2.06 17 .52 8.72 3.79 14 9.69 16 18.05 8.1 33.44-37.47 93.61-49.43 108.66A95.66 95.66 0 0 0 213 176.83c-15.17-7.11-31.74-10.25-46.64-8.84-11.32 1.07-20.7 4.71-27.33 10.45a69.34 69.34 0 0 0-14.89-13.9C117.22 131.38 110 65.23 130.34 42zM82.79 165.56c8.36-6.18 21.18-5.51 32.66 1.69l.12.07s1.12.65 2.8 1.77a3.49 3.49 0 0 0 1.49 1c4.06 2.85 10.14 7.68 14.29 13.54-.53.72-1 1.46-1.5 2.23-8.94 14.8-8.28 29.74 1.91 43.19a57.77 57.77 0 0 0 7.14 7.71c-3.52 10.55-10.43 16.1-20.18 16-16.39-.07-38.5-16.61-45.63-43.21-5.54-20.55-3.02-36.65 6.9-43.99zm-33.53 89.66c-5.62-16.15-5.25-29.58 1.06-37.82 4.07-5.33 10.61-8.31 18.2-8.42.2.81.4 1.62.62 2.45 6 22.26 23.39 41.08 41.66 46.69 1.06 2 1.77 6.48 1.94 9.14.49 10.19-2.76 17.52-9.4 21.21-8.65 4.8-21.68 2.77-33.19-5.19a55.86 55.86 0 0 1-20.89-28.06zm200.93 42.2c-13.77 39.82-45.89 57.37-95.48 52.19-47-4.92-73.29-23.2-80.16-55.79A43.94 43.94 0 0 0 92.62 298a28.91 28.91 0 0 0 14.11-3.41c9-5 13.61-14.82 13-27.71a44.55 44.55 0 0 0-1.06-7.11c.95.08 1.89.23 2.83.23h.14c11.81 0 21-6.7 25.78-18.42a116.23 116.23 0 0 0 25.52 14.07c-3.56 7.07-9.62 23.32-1.11 40.58 9.25 18.77 29.87 27.51 43.36 27.5a26.79 26.79 0 0 0 3.45-.22 3.5 3.5 0 0 0-.9-6.95c-17 2.18-34.22-12.48-39.63-23.46-7.36-14.94-1.41-29.51 1.43-35 18.4 6.49 37.05 8.94 47.46 6.07a3.5 3.5 0 0 0-1.86-6.75c-8.9 2.46-27.57 0-45.81-6.75l-.23-.09c-11.32-4.2-22.44-10-31-17.38a3.45 3.45 0 0 0-.34-.3 54.64 54.64 0 0 1-7.64-8.07c-8.44-11.13-8.94-23-1.5-35.34C149 172.41 181 169.57 210 183.16a88.28 88.28 0 0 1 18.35 11.51 3.16 3.16 0 0 0 1.29 1.07 78.26 78.26 0 0 1 20.93 27.53c9.43 21.11 9.33 46.06-.38 74.15z" fill="#32a0dc"/></g></symbol><symbol viewBox="0 0 320 384" id="Make_Website_Victory_F4-02"><title>Make Website Victory F4</title><g data-name="Victory 2"><path d="M236.11 192.09c14.08-17.63 59.68-78.32 50.89-114.79-2.54-10.49-9.27-18.17-20-22.83-7.66-3.32-15.21-3.52-22.44-.58-21.55 8.75-35.8 43.39-47.25 71.22-3.53 8.59-6.87 16.71-9.86 22.51-3.45 6.71-5.33 8.16-5.94 8.46-.39-.57-1.35-2.74-1.26-10.26.08-6.49.92-15.16 1.8-24.34 2.88-30 6.47-67.42-8.49-85.21-5-5.94-11.73-9.28-20-9.91-11.72-.9-21.31 2.81-28.47 11-11.85 13.56-16.77 39.17-14.63 76.13a394.74 394.74 0 0 0 5.59 46c-13.13-7-27.5-6.9-37.4.41-6.51 4.81-15.94 16.44-11.57 42.09-9.18.46-17.15 4.38-22.31 11.12-5.5 7.2-10.34 20.74-2.11 44.38A62.82 62.82 0 0 0 66.16 289l.52.35c2.34 16.82 8.75 30.19 19.58 40.8 14.63 14.33 37.41 23.21 67.72 26.38a158.3 158.3 0 0 0 16.48.89c33.3 0 70.39-11.62 86.34-57.75 10.32-29.83 10.37-56.51.17-79.29a84.88 84.88 0 0 0-20.86-28.29zM130.34 42c5.71-6.54 13.13-9.35 22.66-8.63 6.41.49 11.37 2.92 15.17 7.44 13.08 15.55 9.5 52.82 6.88 80-2.42 25.14-3.87 40.32 5 42.21 8.52 1.71 14.24-12.2 23.72-35.26 10.37-25.22 24.58-59.76 43.4-67.4 5.5-2.23 11.07-2.06 17 .52 8.72 3.79 14 9.69 16 18.05 8.1 33.44-37.47 93.61-49.43 108.66A95.67 95.67 0 0 0 213 176.83c-15.17-7.11-31.73-10.25-46.64-8.84-11.32 1.07-20.7 4.71-27.33 10.45a69.34 69.34 0 0 0-14.89-13.9 386.51 386.51 0 0 1-6.69-51.45c-2.03-34.56 2.44-59.15 12.89-71.09zM82.79 165.56c8.36-6.18 21.18-5.51 32.66 1.69l.12.07s1.13.65 2.81 1.78a3.51 3.51 0 0 0 1.46 1c4.07 2.85 10.16 7.7 14.31 13.55-.53.72-1 1.46-1.5 2.23-8.94 14.8-8.28 29.74 1.91 43.19a58.3 58.3 0 0 0 7.14 7.79c-3.5 10.52-10.41 16.14-20.06 16.14h-.11c-16.39 0-38.5-16.69-45.63-43.3-5.54-20.7-3.03-36.8 6.89-44.14zm-33.53 89.66c-5.62-16.15-5.25-29.58 1.06-37.82 4.07-5.33 10.61-8.31 18.2-8.41.2.81.4 1.62.62 2.45 6 22.26 23.39 41.08 41.66 46.69 1.05 2 1.77 6.48 1.94 9.13.49 10.19-2.76 17.52-9.4 21.21-8.65 4.81-21.68 2.77-33.19-5.19a55.87 55.87 0 0 1-20.89-28.06zm200.93 42.2c-13.77 39.82-45.9 57.38-95.48 52.19-47-4.92-73.29-23.2-80.16-55.79A43.93 43.93 0 0 0 92.62 298a28.92 28.92 0 0 0 14.11-3.41c9-5 13.61-14.82 13-27.71a44.47 44.47 0 0 0-1.06-7.11c.95.08 1.89.23 2.84.23h.14c11.81 0 21-6.7 25.78-18.42a116.22 116.22 0 0 0 25.52 14.07c-3.56 7.07-9.62 23.32-1.11 40.58 9.25 18.77 29.87 27.51 43.36 27.5a26.79 26.79 0 0 0 3.45-.22 3.5 3.5 0 0 0-.9-6.95c-17 2.19-34.22-12.48-39.63-23.46-7.36-14.94-1.41-29.51 1.43-35 18.4 6.49 37.05 8.94 47.46 6.07a3.5 3.5 0 0 0-1.86-6.75c-8.9 2.46-27.57 0-45.81-6.75l-.24-.09c-11.31-4.2-22.43-10-30.94-17.37a3.45 3.45 0 0 0-.35-.31 54.63 54.63 0 0 1-7.64-8.06c-8.44-11.13-8.94-23-1.5-35.34C149 172.41 181 169.57 210 183.16a88.28 88.28 0 0 1 18.36 11.51 3.16 3.16 0 0 0 1.28 1.07 78.27 78.27 0 0 1 20.93 27.53c9.43 21.11 9.33 46.06-.38 74.15z" fill="#eee"/><path d="M267.83 263.72c-.72-31.56-10-56.58-27.45-74.38A84.88 84.88 0 0 0 211 170c7.07-21.42 28.68-94.2 7.7-125.31-6-9-15-13.81-26.69-14.44-8.34-.45-15.48 2-21.24 7.27-17.15 15.7-18.45 53.14-19.49 83.21-.32 9.29-.62 18.06-1.4 24.54-.9 7.5-2.16 9.5-2.62 10-.56-.4-2.22-2.1-4.75-9.18-2.18-6.11-4.42-14.53-6.79-23.44-7.8-29.12-17.45-65.41-37.72-76.88-6.75-3.83-14.22-4.61-22.19-2.33-11.31 3.24-19 10-22.86 20.23-6.38 16.84-2.08 42.56 12.79 76.46a394.83 394.83 0 0 0 21.27 41.2c-14.73-2-28.18 3.11-34.91 13.41-4.43 6.78-9.22 21 3.81 43.49-8.44 3.63-14.55 10.08-17 18.19-2.65 8.66-2.47 23 13.47 42.33a62.83 62.83 0 0 0 33 21.35l.62.13c8.05 15 18.71 25.26 32.57 31.44 9.8 4.37 21.19 6.56 34.05 6.56q17.51 0 38.62-5.41c35.66-9.15 77.89-32.04 76.59-89.1zM72.2 137.31C58.29 105.61 53.91 81 59.54 66.15c3.08-8.11 9-13.34 18.24-16 6.22-1.75 11.68-1.2 16.81 1.71 17.67 10 27.29 46.21 34.32 72.63 6.49 24.41 10.42 39.14 19.36 37.84 8.58-1.36 9.1-16.4 10-41.31.94-27.25 2.24-64.58 17.22-78.29 4.38-4 9.66-5.79 16.13-5.44 9.5.51 16.45 4.23 21.26 11.36 19.24 28.52-2.53 100.8-8.51 119.07a95.67 95.67 0 0 0-20.37-3.94c-16.7-1.38-33.32 1.44-46.8 8-10.24 4.94-17.77 11.62-22 19.32a69.34 69.34 0 0 0-18.8-7.84 386.61 386.61 0 0 1-24.2-45.95zM58 198.56c5.69-8.7 17.93-12.54 31.21-9.79h.14s1.26.21 3.21.67a3.5 3.5 0 0 0 1.72.46h.09c4.8 1.26 12.17 3.67 18.09 7.72-.25.86-.47 1.73-.63 2.61-3.23 17 2.59 30.76 16.83 39.82a57.77 57.77 0 0 0 9.37 4.74c.37 11.12-4.21 18.73-13.33 22.07-15.39 5.64-41.87-2.17-57.82-24.62-12.39-17.43-15.63-33.36-8.88-43.68zm-.21 95.72c-10.89-13.18-15.22-25.9-12.18-35.82 2-6.41 7.05-11.49 14.13-14.22.47.69.94 1.38 1.44 2.08 12.76 18 34.25 29.35 52.78 29.35.85 0 1.69 0 2.52-.08 1.69 1.53 3.92 5.46 5 7.89 4 9.38 3.52 17.38-1.42 23.15-6.44 7.52-19.36 10.14-32.92 6.69a55.86 55.86 0 0 1-29.35-19.04zM189.5 346c-45.76 11.75-76.79 3.77-94.58-24.4 1.24.09 2.46.15 3.67.15 11.07 0 20.88-3.74 26.77-10.61 6.69-7.82 7.6-18.63 2.53-30.5a45.1 45.1 0 0 0-3.49-6.37c.92-.25 1.82-.53 2.71-.86 11.15-4.09 17.49-13.51 17.9-26.22a116.34 116.34 0 0 0 28.84 4.34c-.88 7.86-.89 25.23 13.1 38.45 10.1 9.55 23.37 13.21 34.84 13.21 7.35 0 14-1.5 18.54-3.91a3.5 3.5 0 1 0-3.26-6.2c-15.17 8-36.42.22-45.32-8.19-12.1-11.44-11.59-27.18-10.84-33.3 19.51-.32 37.85-4.52 46.61-10.84a3.5 3.5 0 1 0-4.1-5.68c-7.49 5.4-25.86 9.59-45.31 9.62h-.22c-12 0-24.47-1.59-35-5.47a3.43 3.43 0 0 0-.54-.21 54.62 54.62 0 0 1-9.95-4.89c-11.79-7.5-16.4-18.47-13.71-32.61 3.73-19.62 32.75-33.45 64.69-30.8a88.29 88.29 0 0 1 21.22 4.4 3.19 3.19 0 0 0 1.58.56 78.25 78.25 0 0 1 29.2 18.52c16.21 16.49 24.77 39.92 25.45 69.63.96 42.18-23.04 69.83-71.33 82.18z" fill="#ff4065"/></g></symbol><symbol viewBox="0 0 600 600" fill="none" id="logo01"><path d="M130.88 314.978v-31.982h10.29v31.982h-10.29zm19.614 2.878v-37.74c0-2.877-2.572-5.116-5.145-5.116H117.7v7.996h3.857v31.982H117.7v7.995h27.97c2.573 0 4.824-2.238 4.824-5.117zM179.43 306.023v8.955H168.5v-13.113h14.467v-7.995H168.5v-10.874h10.93v6.716h9.003V275h-32.795v7.996h3.537v31.982h-3.537v7.995h32.795v-16.95h-9.003zM206.438 293.87v-10.874h10.61v10.874h-10.61zm20.255 21.108v-11.514c0-2.878-2.25-5.117-5.144-5.117 2.892 0 5.143-2.24 5.143-5.117v-12.793c0-2.56-2.25-5.117-4.823-5.117h-28.615v7.995h4.18v31.983h-4.18v7.675h17.04v-7.995h-3.536v-13.113h10.61v13.113h-3.86v7.995h16.72v-7.995h-3.537zM295.175 293.87v-10.874h10.932v10.874h-10.932zm20.256 2.878v-16.63c0-2.88-2.25-5.118-5.144-5.118h-28.293v7.996h3.858v31.982h-3.857v7.995h16.72v-7.995h-3.538v-13.113h15.11c2.895 0 5.146-2.24 5.146-5.117zM331.828 314.978v-31.982h3.858V275h-16.72v7.996h3.86v31.982h-3.86v7.995h16.72v-7.995h-3.858zM363.658 306.023v8.955h-10.932v-13.113h14.468v-7.995h-14.468v-10.874h10.932v6.716h9.324V275h-33.116v7.996h3.536v31.982h-3.536v7.995h33.116v-16.95h-9.324zM390.022 293.87v7.995h7.395v13.113h-10.932v-31.982h10.932v6.716h9.645v-9.595c0-2.878-2.25-5.117-5.144-5.117h-19.29c-1.287 0-2.573.64-3.216 1.28-.964.96-1.93 2.238-1.93 3.837v37.74c0 1.598.644 2.878 1.93 3.837.965.96 2.25 1.28 3.537 1.28h24.112V293.87h-17.04zM435.355 306.023v8.955h-10.932v-13.113h14.468v-7.995h-14.467v-10.874h10.932v6.716h9.324V275h-33.117v7.996h3.536v31.982h-3.537v7.995h33.116v-16.95h-9.325zM472.973 306.023v8.955h-10.61v-31.982h3.86V275H449.18v7.996h3.86v31.982h-3.86v7.995h33.117v-16.95h-9.324zM277.814 318.144v-24.148H257.88V283.05h10.61v6.76h9.324v-9.658c0-3.09-2.894-5.152-5.788-5.152H253.38c-2.895 0-5.146 2.254-5.146 5.152v21.893h19.934v13.2h-10.61v-9.014h-9.324v11.592c0 2.898 2.25 5.15 5.145 5.15h18.968c2.96 0 5.466-1.93 5.466-4.828z" fill="#000"/></symbol><symbol viewBox="0 0 600 600" fill="none" id="logo02"><path d="M187.38 228.766v142.467l4.514-1.767c34.6-13.46 71.14-20.288 108.6-20.288 37.43 0 73.933 6.818 108.505 20.25l4.513 1.76V228.765H187.38zM405.456 359.54c-32.768-11.897-68.088-18.373-104.972-18.373-36.912 0-72.26 6.503-105.056 18.42V236.832h210.028V359.54z" fill="#000"/><path d="M261.85 259.573c-12.645 13.442-25.162 29.113-35.875 44.46-4.422 6.328-9.112 14.118-12.165 19.807-.185.352.85.99 1.305.333 8.816-12.6 17.253-24.08 26.032-35.154 6.3-7.938 16.782-20.057 24.155-27.153-3.765 5.847-11.795 20.214-17.457 29.76-5.45 9.206-11.684 19.854-12.396 21.77-.464 1.238 1.368 3.246 2.71 1.636 5.217-6.374 8.427-10.454 12.877-15.995 3.228-4.015 10.833-12.202 14.95-15.662-1.213 2.36-7.105 10.88-10.52 17.355-2.108 4.016-6.456 11.583-6.54 12.638-.083 1.054 1.555 3.413 2.757 2.525 4.69-4.903 17.725-18.937 23.655-24.136-6.717 8.558-13.924 22.61-13.304 26.93.204 1.425 1.323 5.764 6.53 4.515 4.57-1.092 12.555-7.697 12.555-7.697.49 1.045 2.5 2.322 3.942 2.285 4.108-.13 8.576-3.192 14.968-7.447-1.62 4.588-2.747 7.17-2.433 8.464.24 1 .86 1.934 2.702 1.915.47 0 1.812.01 5.882-2.46 2.905-1.915 9.122-6.3 10.352-7.15-1.11 2.043-3.22 5.068-2.895 5.975.498 1.387 3.237 1.064 4.763-.343.76-.703 1.582-2.312 2.95-4.967 1.537-2.97 2.638-5.875 1.527-6.587-1.628-1.027-4.644.472-7.835 2.535-5.088 3.284-10.593 8.104-11.49 7.197-1.832.13 5.375-12 5.375-12 13.136-12.414 22.73-19.278 29.132-26.725.962-1.13 4.116-4.524 6.67-8.604 1.137-1.822 1.443-2.636 1.665-3.903.222-1.23-1.157-1.425-1.934-1.703-2.35-.823-8.724 2.12-12.09 4.524-6.097 4.35-9.085 6.856-13.99 12.85-5.142 6.273-7.464 9.613-13.514 21.436-.223.434-5.052 4.422-7.57 6.207-2.904 2.045-10.34 7.808-12.23 5.597 4.063-2.997 10.64-8.04 13.536-12.045 1.73-2.396 2.026-4.255.397-5.19-2.09-1.202-6.54-.703-11.406 2.23-4.68 2.82-7.808 8.168-8.816 14.404-.083.498-9.25 8.12-11.536 7.14-1.295-.555-.296-4.412 5.625-15.19 5.9-10.73 14.135-21.953 14.977-23.238 1.693-2.582-1.277-2.508-2.452-2.322-.573.092-4.903 3.19-7.734 5.458-5.42 4.67-12.84 11.906-16.614 15.92 4.506-7.687 8.04-12.997 10.852-17.937 4.033-7.095 8.02-12.072 6.152-12.923-2.766-.75-6.087 2.646-10.963 7.52-4.357 4.36-10.426 10.927-13.627 13.813 2.822-3.793 7.78-11.786 11.5-17.965 7.123-11.75 11.656-20.297 10.573-21.185-2.57-2.295-8.51 2.97-13.682 8.483zm66.794 35.413c-1.267-2.257-4.32-1.332-5.912 1.822-.878 1.73-.444 3.858 1.545 4.154 2.83.426 5.57-3.83 4.367-5.976zm18.095-16.31c-7.67 9.316-16.523 25.617-16.523 25.617s-1.203.38-2.97.767c-2.572.555.86 2.6.398 4.302-.86 3.192-1.258 3.82-1.915 6.134-.48 1.674 3.21 2.118 3.83.63 3.09-7.356 4.662-9.706 4.662-9.706s9.51-6.78 13.942-9.695c-1.443 2.914-5.125 8.52-5.125 8.52s-.982.028-3.045.306c-.546.075-1.027 1.185-.88 1.388 1.12 1.545 1.833 1.952 1.213 3.312-.962 2.128-1.11 3.173-2.22 5.93-1.018 2.526 3.81 1.998 4.81-.388 2.637-6.337 3.756-7.725 3.756-7.725l5.828-1.277s-1 .907-2.053 2.433c-1.703 2.47-2.675 6.337 2.07 7.577 2.85.74 6.403-1.323 8.53-2.96-1.09 3.145.445 5.985 3.044 7.252 5.615 2.74 14.534-5.004 16.893-8.335-3.433 1.795-9.39 5.135-13.054 5.246-1.054.037-2.08-.26-2.562-.916-.462-.64-.573-1.258-.536-2.11.23-4.58 6.356-11.452 7.29-12.396.555-.943-.444-2.34-2.516-1.34-1.462.703-2.554 1.822-2.554 1.822s-1.665-1.702-4.09-1.878c-2.82-.194-5.52 1.11-7.224 2.415 0 0-4.662.868-7.308 1.174 5.976-11.87 14.404-21.185 15.357-22.777.36-.61.683-1.37-.186-1.48-1.064-.14-2.387.102-3.312.88-4.19 3.552-10.038 11.683-10.038 11.683s-8.87 5.93-13.182 8.742c4.736-8.973 9.5-17.03 16.393-26.004.36-.472.656-.814.25-.907-.685-.147-2.49.214-2.998.427-1.693.703-2.748 1.85-3.978 3.34zm-14.192-3.515c-5.884 5.524-10.86 11.232-19.298 17.966 2.95-5.458 9.65-13.978 15.514-19.53 4.626-4.44 8.234-6.252 8.88-5.484.75.888-3.218 5.29-5.096 7.05zm-41.223 28.032c-2.896 2.72-6.864 6.06-6.864 6.06s.288-3.535 3.932-7.763c2.026-2.34 4.7-3.377 5.662-3.007 1.443.583-1.452 3.497-2.73 4.71zm64.092 8.233c-.287-2.294 2.053-4.468 3.792-5.403 2.423-1.304 4.838-.48 4.82 1.222-.02 1.25-2.24 4.163-4.765 5.17-1.563.62-3.636.676-3.848-.99zm19.77-27.032c0-4.995 4.08-9.066 9.11-9.066 5.015 0 9.077 4.08 9.077 9.066 0 5.042-4.052 9.122-9.076 9.122-5.04 0-9.112-4.08-9.112-9.122zm16.744 0c0-4.412-3.22-7.872-7.632-7.872-4.43 0-7.678 3.45-7.678 7.873 0 4.47 3.247 7.92 7.678 7.92 4.413 0 7.633-3.45 7.633-7.92zm-3.09 5.09h-1.49l-2.904-4.682h-2.275v4.682h-1.248v-10.15h4.44c2.692 0 3.6 1.01 3.6 2.693 0 1.99-1.39 2.738-3.193 2.776l3.07 4.682zm-4.782-5.663c1.443 0 3.552.24 3.552-1.823 0-1.582-1.304-1.776-2.544-1.776h-2.905v3.6h1.898z" fill="#000"/></symbol><symbol viewBox="0 0 600 600" fill="none" id="logo03"><path d="M171.11 297.944l2.183 7.32h2.504v-18.04h-2.504l-2.182 7.64h-7.06V277.53h11.362l4.686 10.464h2.44V274.77h-36.592v2.632l4.943 1.155v35.05l-4.944 1.157v2.632h24.78v-2.76l-6.677-1.028v-15.664h7.06zM185.64 317.395h20.735v-2.503l-4.044-.835V283.95l-16.626 3.274v1.283l4.045 3.274v22.277l-4.11.835v2.503zm10.72-36.398c3.34 0 6.035-2.568 6.035-5.906 0-3.273-2.696-5.97-6.034-5.97-3.273 0-5.84 2.697-5.84 5.97 0 3.34 2.567 5.907 5.84 5.907zM208.675 317.394h19.515v-2.503l-3.017-.834V291.78c.77-.45 1.733-.706 3.017-.77 3.082-.064 5.072 2.247 5.072 5.842v17.204l-3.146.77v2.568h19.644v-2.503l-3.98-.834v-20.478c0-6.227-3.852-9.63-9.63-9.63-5.135 0-9.436 3.596-11.683 5.907h-.13l-.705-6.035h-.32l-14.51 3.788v1.348l3.853 2.825v22.276l-3.98.835v2.504zM261.58 318.358c4.75 0 7.447-2.953 8.988-5.392h.256c.32 4.11 2.76 5.264 6.356 5.264 4.43 0 9.95-3.145 9.95-3.145v-1.862h-1.926c-1.797 0-2.632-.13-2.632-2.696V294.67c0-7.96-4.686-10.72-11.876-10.72-8.923 0-16.948 4.558-16.948 8.923 0 2.825 1.926 4.108 4.815 4.108 2.118 0 4.173-.384 5.264-.897l.128-8.217c.386-.193.9-.32 1.67-.32 3.21 0 4.43 2.76 4.75 5.712v5.65l-6.034 1.412c-8.28 1.925-11.62 4.365-11.62 9.63 0 4.493 3.404 8.408 8.86 8.408zm6.612-6.227c-2.31 0-4.044-1.603-4.044-4.492 0-2.504 1.733-4.943 6.163-6.227h.065v10.015a3.668 3.668 0 0 1-2.183.706zM288.646 317.394h19.516v-2.503l-3.018-.834V291.78c.772-.45 1.734-.706 3.018-.77 3.08-.064 5.07 2.247 5.07 5.842v17.204l-3.145.77v2.568h19.644v-2.503l-3.978-.834v-20.478c0-6.227-3.853-9.63-9.63-9.63-5.137 0-9.436 3.596-11.684 5.907h-.128l-.707-6.035h-.32l-14.508 3.788v1.348l3.85 2.825v22.276l-3.98.835v2.504zM332.377 317.396h29.916l1.476-13.93h-2.247l-6.1 10.72h-8.794l16.88-28.824v-.385h-24.328l-5.778-.77v13.866h2.12l4.557-9.886h8.54l-16.243 27.668v1.54zM379.39 318.358c5.33 0 9.246-1.734 12.647-3.595l-.385-2.12c-.64.13-1.604.322-2.888.322-2.504 0-5.328-.898-6.227-4.237v-19.772h9.437v-3.98h-9.437v-7.832h-1.028l-11.235 7.64-4.75 1.797v2.376h4.686l-.192 19.58c-.063 6.42 3.018 9.822 9.373 9.822zM393.86 317.395h20.735v-2.503l-4.044-.835V283.95l-16.626 3.274v1.283l4.044 3.274v22.277l-4.108.835v2.503zm10.72-36.398c3.34 0 6.035-2.568 6.035-5.906 0-3.273-2.696-5.97-6.035-5.97-3.273 0-5.842 2.697-5.842 5.97 0 3.34 2.57 5.907 5.842 5.907z" fill="#000"/><path d="M413.87 330.875h24.394v-2.44l-7.125-1.154v-9.308h2.566c10.207 0 20.35-7.64 20.35-19.194 0-9.694-6.74-14.444-13.096-14.444-5.264 0-8.41 2.696-10.59 5.52h-.13l-.64-6.034h-.323l-14.508 3.788v1.348l3.85 2.825v35.757l-4.75.835v2.503zm18.81-40.57c4.236 0 8.602 4.942 8.602 14.122 0 6.87-2.375 10.977-5.714 10.977-2.247 0-3.723-1.733-4.43-3.466v-21.313a3.87 3.87 0 0 1 1.542-.32z" fill="#000"/></symbol><symbol viewBox="0 0 600 600" fill="none" id="logo04"><path d="M245.27 243.243h71.987v10.197H245.27v-10.197zM245.27 349.093h71.987v8.74H245.27v-8.74zM245.27 263.635h99.106v15.052H245.27v-15.052zM245.27 324.816h92.203v14.08H245.27v-14.08zM245.27 290.342h109.46v23.307H245.27V290.34z" fill="#000"/></symbol><symbol viewBox="0 0 600 600" fill="none" id="logo05"><path d="M99.324 327.92h399.568v-7.283H99.324M481.812 307.534c0 2.096-.368 2.525-2.404 3.87l.094.443h11.338l.115-.442c-1.99-1.346-2.432-1.775-2.432-3.87v-31.89c6.61 0 8.012 1.4 10.75 4.616l.428-.213-2.094-7.52h-24.863l-2.03 7.52.43.214c2.68-3.214 4.078-4.614 10.67-4.614v31.888zm-23.502-35.912c-6.457 0-12.142 3.757-12.142 10.682 0 6.51 4.118 9.792 8.25 12.518l3.022 1.983 2.66 1.976c1.56 1.4 2.604 2.982 2.604 5.058 0 3.75-2.626 6.13-5.7 6.13-5.425 0-8.9-3.016-9.598-8.072l-.488-.208-2.097 7.736s5.91 3.375 12.185 3.375c6.772 0 12.31-3.812 12.31-10.73 0-6.765-4.14-9.88-8.278-12.424l-3.055-1.842-2.638-1.95c-1.54-1.398-2.572-3.046-2.572-5.316 0-3.658 1.882-6.13 5.538-6.13 5.467 0 7.623 2.954 8.36 7.897l.435.215 2.097-7.508s-5.046-3.39-10.892-3.39zm-31.686 3.442c5.478 0 9.39 5.854 9.39 17.073 0 11.647-3.382 17.186-9.39 17.186-5.486 0-9.29-5.814-9.29-17.186 0-11.434 3.282-17.073 9.29-17.073zm0-3.12c-9.666 0-16.698 8.156-16.698 20.193 0 11.975 6.973 20.294 16.698 20.294 9.665 0 16.758-8.063 16.758-20.08 0-12.035-7.04-20.407-16.758-20.407zm-36.63 24.298h-1.514v-20.615h2.7c6.395 0 8.806 3.616 8.806 10.663 0 8.318-3.904 9.952-9.993 9.952zm1.46-23.716h-11.647l-.114.442c1.728 1.34 2.097 1.768 2.097 3.87v30.695c0 2.097-.368 2.525-2.097 3.87l.114.443h11.32l.113-.442c-2.317-1.346-2.74-1.775-2.74-3.87v-8.205h1.493c10.596 0 17.4-3.81 17.4-13.376 0-8.164-4.727-13.428-15.94-13.428zm-50.26 39.32h19.444l3.228-7.48-.388-.255c-2.72 3.27-5.68 4.61-10.148 4.61l-3.422-.37v-15.94h1.77c4.117 0 6.22.155 8.477.852l.368-.114 1.187-4.394-.368-.114c-2.258.696-4.36.757-8.48.757h-2.954v-13.65l2.252-.1c6.77 0 8.15 1.4 10.735 4.614l.368-.213-2.043-7.52h-20.025l-.094.44c1.716 1.34 2.076 1.77 2.076 3.87v30.696c0 2.097-.36 2.525-2.075 3.87l.095.444zm-12.088-4.312c0 2.096-.368 2.525-2.076 3.87l.094.443h10.535l.154-.442c-1.728-1.346-2.157-1.775-2.157-3.87v-30.696c0-2.104.428-2.533 2.157-3.872l-.155-.442h-10.536l-.094.442c1.708 1.34 2.076 1.77 2.076 3.87v12.13H316.24v-12.13c0-2.102.423-2.53 2.13-3.87l-.147-.442h-10.576l-.12.442c1.727 1.34 2.102 1.77 2.102 3.87v30.696c0 2.096-.376 2.525-2.104 3.87l.12.443h10.577l.147-.442c-1.707-1.346-2.13-1.775-2.13-3.87v-15.09h12.866v15.09zm-42.483-15.612c0-11.118 3.603-16.972 9.725-16.972 3.985 0 5.813 3.497 6.128 8.44l.483.153 2.41-8.646c-2.472-1.876-5.31-2.954-8.694-2.954-10.268 0-17.608 7.943-17.608 19.377 0 12.464 6.55 21.11 17.186 21.11 4.078 0 7.134-1.768 9.6-4.293l-1.703-3.382h-.434c-1.822 2.955-3.71 4.568-7.153 4.568-6.062 0-9.94-6.122-9.94-17.4zm-21.09-20.3c-6.43 0-12.13 3.757-12.13 10.682 0 6.51 4.12 9.792 8.244 12.518l3.007 1.983 2.673 1.976c1.546 1.4 2.605 2.982 2.605 5.058 0 3.75-2.625 6.13-5.68 6.13-5.424 0-8.92-3.016-9.623-8.072l-.483-.208-2.09 7.736s5.914 3.375 12.196 3.375c6.765 0 12.284-3.812 12.284-10.73 0-6.765-4.14-9.88-8.278-12.424l-3.036-1.842-2.645-1.95c-1.535-1.398-2.567-3.046-2.567-5.316 0-3.658 1.87-6.13 5.52-6.13 5.484 0 7.62 2.954 8.385 7.897l.422.215 2.103-7.508s-5.058-3.39-10.91-3.39zm-25.178 35.912c0 2.096-.388 2.525-2.156 3.87l.112.443h10.576l.1-.442c-1.714-1.346-2.135-1.775-2.135-3.87v-30.696c0-2.104.422-2.533 2.096-3.872l-.114-.442h-10.46l-.116.442c1.708 1.34 2.097 1.77 2.097 3.87v30.696h-.002zm-13.642 4.313h5.325V276.84c0-2.104.368-2.533 2.41-3.872l-.154-.442h-8.07l-.102.442c2.197 1.34 2.566 1.77 2.566 3.87v23.717l-15.658-28.03h-8.17l-.095.443c1.982 1.34 2.404 1.768 2.404 3.87v30.695c0 2.097-.424 2.525-2.405 3.87l.094.443h8.05l.12-.442c-2.164-1.346-2.586-1.775-2.586-3.87v-24.36l16.27 28.673zm-33.89-4.313c0 2.096-.368 2.525-2.136 3.87l.12.443h10.576l.094-.442c-1.714-1.346-2.136-1.775-2.136-3.87v-30.696c0-2.104.423-2.533 2.077-3.872l-.094-.442H190.84l-.093.442c1.708 1.34 2.076 1.77 2.076 3.87v30.696zm-27.427 4.313h19.436l3.228-7.48-.368-.256c-2.746 3.27-5.7 4.61-10.154 4.61l-3.435-.37v-15.94h1.775c4.133 0 6.216.155 8.466.852l.395-.114 1.185-4.394-.396-.114c-2.244.696-4.355.757-8.473.757h-2.954v-13.65l2.25-.1c6.772 0 8.17 1.4 10.737 4.614l.39-.213-2.045-7.52h-20.04l-.1.44c1.715 1.34 2.104 1.77 2.104 3.87v30.696c0 2.097-.39 2.525-2.105 3.87l.1.444zm-12.076-4.313c0 2.096-.388 2.525-2.103 3.87l.12.443h10.523l.147-.442c-1.708-1.346-2.13-1.775-2.13-3.87v-30.696c0-2.104.422-2.533 2.13-3.872l-.147-.442h-10.522l-.12.442c1.714 1.34 2.102 1.768 2.102 3.87v12.13h-12.886v-12.13c0-2.102.42-2.53 2.136-3.87l-.153-.442H131.84l-.1.442c1.708 1.34 2.076 1.768 2.076 3.87v30.695c0 2.097-.368 2.525-2.076 3.87l.1.443h10.576l.154-.442c-1.715-1.346-2.136-1.775-2.136-3.87v-15.09h12.886v15.09zm-41.78-11.74l-3.302-.18v-19.987h2.117c6.61 0 9.818 3.288 9.818 9.96 0 7.293-3.543 10.206-8.633 10.206zm0-23.268H99.572l-.12.442c1.727 1.34 2.102 1.768 2.102 3.87v30.696c0 2.096-.375 2.525-2.103 3.87l.122.443h10.722l.12-.442c-1.727-1.346-2.156-1.775-2.156-3.87v-8.573h3.014l8.258 12.885h9.182l.114-.44c-2.043-1.347-2.9-2.145-4.146-3.873l-6.818-9.604c4.843-1.613 9.718-5.425 9.718-12.565 0-7.943-5.15-12.84-16.04-12.84z" fill="#000"/></symbol><symbol viewBox="0 0 600 600" fill="none" id="logo06"><path d="M300 212.838c-48.14 0-87.162 39.022-87.162 87.162 0 48.14 39.022 87.162 87.162 87.162 48.14 0 87.162-39.022 87.162-87.162 0-48.14-39.022-87.162-87.162-87.162zm-39.684 103.605l-15.102-13.14v11.02h-9.312v-30.59l15.11 13.158V285.88h9.296v30.565h.008zm17.7-2.112h-9.302v-28.444s9.303.034 9.303 0v28.445zm17.794 2.113l-16.268-30.557h9.923s5.842 11.86 6.353 12.748l6.378-12.748h9.915c.026 0-16.3 30.557-16.3 30.557zm36.046-23.34h-8.934v3.99l8.934-.01v5.39h-8.934v4.425h8.934v7.425h-18.228v-28.437h18.228v7.216zm26.735 21.228l-1.532-3.1H345.45l-1.576 3.1h-9.72s11.346-20.616 17.112-30.79l17.123 30.79h-9.8zm-10.894-7.8h7.05c0 .024-3.488-7.293-3.488-7.293s-3.562 7.317-3.562 7.292z" fill="#000"/></symbol><symbol viewBox="0 0 600 600" fill="none" id="logo07"><path d="M207.923 327.535l-4.738-4.662c-4.62 2.97-10.535 4.662-15.757 4.662-16.088 0-29.188-12.293-29.188-28.623 0-15.618 13.19-28.475 29.188-28.475s29.31 12.857 29.31 28.475c0 7.75-3.29 14.905-8.483 19.894l8.965 8.7h-9.297v.03zm-4.738-13.955c3.984-3.712 5.946-9.65 5.946-14.668 0-11.67-8.843-21.438-21.67-21.438-12.74 0-21.583 9.77-21.583 21.438 0 12.174 9.81 21.467 21.582 21.467 3.138 0 7.152-.832 10.29-2.762l-12.827-12.382h9.69l8.572 8.344zm26.773-21.2v19.656c0 6.443 4.105 8.7 8.36 8.7 4.106 0 8.362-2.257 8.362-8.7V292.38h7.274v19.418c0 9.413-5.584 15.737-15.635 15.737-9.932 0-15.516-6.324-15.516-15.143V292.38h7.154zm63.628 33.967h-7.033l-.12-4.66c-2.536 3.443-6.067 5.848-10.655 5.848-10.655 0-16.602-8.225-16.602-17.993 0-9.413 6.188-18.23 16.36-18.23 4.86 0 8.24 2.255 11.017 6.086v-5.018h7.033v33.967zm-6.67-16.924c0-6.562-3.743-11.7-10.293-11.7-6.43 0-10.172 5.375-10.172 11.7 0 6.324 3.774 11.7 10.173 11.7 6.55-.03 10.293-5.287 10.293-11.7zm22.306-12.41c2.052-3.92 5.946-5.732 10.05-5.732 9.086 0 12.226 6.444 12.226 14.788v20.25h-7.396v-19.42c0-6.56-2.173-9.174-6.67-9.174-5.584 0-8.482 3.712-8.482 13.005v15.617h-7.274V292.38h7.274l.272 4.632zm36.704 29.334h-7.154v-46.735h7.154v12.738h6.43v6.68h-6.43v27.317zm18.05-33.967v19.656c0 6.443 3.622 8.7 7.636 8.7 4.226 0 7.878-2.257 7.878-9.413V292.38h7.275v20.012c0 8.82-5.1 15.143-15.153 15.143-9.93 0-14.91-6.324-14.91-15.143V292.38h7.274zm37.217 4.632c1.932-3.445 5.343-5.73 9.206-5.73 3.742 0 7.515 2.137 9.085 6.442 2.535-4.157 5.946-6.443 10.775-6.443 8.12 0 11.5 7.038 11.5 14.788v20.25h-7.274v-19.18c0-4.07-.604-9.414-5.946-9.414-4.256 0-7.154 3.712-7.154 11.105v17.517h-7.274v-20.28c0-5.255-1.81-8.343-5.826-8.343-4.346 0-7.153 3.712-7.153 11.788v16.806h-7.396V292.38h7.275l.18 4.632z" fill="#000"/></symbol><symbol viewBox="0 0 600 600" fill="none" id="logo08"><path d="M252.003 314.847a11.53 11.53 0 0 0-7.415 2.672v-1.822h-9.095v27.6h9.095v-17.35a6.713 6.713 0 0 1 4.904-2.738c3.006 0 4.957 1.875 4.957 5.808v14.28h9.03V327.53c0-7.844-4.677-12.683-11.477-12.683zm-27.373-13.88a5.203 5.203 0 0 0-5.01 6.26 5.204 5.204 0 0 0 7.085 3.754 5.198 5.198 0 0 0 3.216-4.776 5.16 5.16 0 0 0-.385-2.027 5.174 5.174 0 0 0-4.905-3.21zm127.456 14.106c-8.622 0-14.72 6.09-14.72 14.398a14.222 14.222 0 0 0 .995 5.7 14.247 14.247 0 0 0 13.725 8.98c8.525 0 14.603-6.263 14.603-14.68 0-8.416-6.09-14.397-14.602-14.397zm0 21.112c-3.74 0-6.132-2.964-6.132-6.66 0-3.697 2.392-6.466 6.132-6.466 3.74 0 6.078 2.908 6.078 6.465 0 3.556-2.468 6.66-6.078 6.66zm-131.907 7.112h9.05v-27.6h-9.03l-.02 27.6zm-18.397-28.224a13.54 13.54 0 0 0-7.36 2.048V315.7h-9.085V356.1h9.085v-14.29a13.462 13.462 0 0 0 7.36 2.06c7.296 0 13.428-6.21 13.428-14.4 0-8.19-6.142-14.397-13.438-14.397h.01zm-1.79 21.22a6.915 6.915 0 0 1-5.57-2.5v-8.622a6.993 6.993 0 0 1 5.57-2.564c3.687 0 6.36 3.07 6.36 6.886 0 3.815-2.684 6.8-6.37 6.8h.01zm224.157-20.595v1.423a13.6 13.6 0 0 0-7.36-2.047c-7.36 0-13.44 6.143-13.44 14.398 0 8.256 6.08 14.4 13.44 14.4 2.6.035 5.155-.68 7.36-2.06v14.29h9.03v-40.402h-9.03zm0 18.094a6.956 6.956 0 0 1-5.583 2.5 6.87 6.87 0 0 1-6.48-6.853 6.862 6.862 0 0 1 6.48-6.855 7.042 7.042 0 0 1 5.583 2.564v8.643zm-135.647-16.67a13.565 13.565 0 0 0-7.36-2.05c-7.35 0-13.428 6.144-13.428 14.4 0 8.254 6.078 14.397 13.428 14.397a13.48 13.48 0 0 0 7.36-2.06v14.29h9.03v-40.402h-9.03v1.423zm0 16.67a6.915 6.915 0 0 1-5.57 2.5 6.87 6.87 0 0 1-6.482-6.853 6.867 6.867 0 0 1 6.482-6.855 6.99 6.99 0 0 1 5.57 2.586v8.622zm31.727-18.72a13.57 13.57 0 0 0-7.36 2.05v-1.424h-9.085V356.1h9.084v-14.29a13.484 13.484 0 0 0 7.36 2.06c7.296 0 13.428-6.21 13.428-14.4 0-8.19-6.122-14.397-13.417-14.397h-.01zm-1.79 21.22a6.92 6.92 0 0 1-5.57-2.5v-8.62a7.005 7.005 0 0 1 5.57-2.566c3.687 0 6.36 3.07 6.36 6.886 0 3.815-2.663 6.8-6.348 6.8h-.01zm37.956-57.644a22.326 22.326 0 0 0-26.678-21.912 22.326 22.326 0 0 0-16.28 30.444 22.324 22.324 0 0 0 20.63 13.786 22.325 22.325 0 0 0 22.33-22.318zM284.462 234a22.323 22.323 0 0 0-20.607 13.807A22.33 22.33 0 1 0 284.462 234zm103.176 80.825a11.56 11.56 0 0 0-7.414 2.673v-1.82h-9.085v27.598h9.084v-17.35a6.734 6.734 0 0 1 4.903-2.738c3.018 0 4.968 1.875 4.968 5.81v14.278h9.03V327.53c0-7.844-4.687-12.683-11.476-12.683l-.012-.022z" fill="#000"/></symbol><symbol viewBox="0 0 600 600" fill="none" id="logo09"><path d="M227.506 278.8v42.42h-42.28V278.8l21.15 21.21 21.13-21.21zm-21.15-21.327l-42.393 42.537 42.394 42.517 42.395-42.517-42.395-42.537zM434.01 320.316v-40.612h-8.757v16.852H411.35v-16.852h-8.757v40.612h8.757V304.06h13.903v16.256h8.757zm-41.808-40.612h-8.92l-10.168 19.804c-.384.718-.727 1.722-.727 1.845-.06-.164-.383-1.127-.766-1.845l-10.774-19.804h-8.596v40.612h8.757v-23.412c0-1.332-.16-2.624-.16-2.788.06.226.382 1.005.725 1.558l9.08 16.647h3.33l8.918-16.646c.323-.615.666-1.394.706-1.558-.06.164-.16 1.456-.16 2.788v23.433h8.756v-40.633zm-50.323 40.612v-40.612h-8.758v16.852H319.22v-16.852h-8.757v40.612h8.757V304.06h13.902v16.256h8.757zm-40.114-11.52c0-6.684-4.156-9.452-8.05-11.174-4.662-2.05-9.746-3.178-9.746-6.847 0-1.62 1.432-3.957 5.468-3.957 2.905 0 5.85 1.005 7.607 2.337l3.934-6.622c-3.23-2.44-7.77-3.505-11.563-3.505-7.062 0-14.225 3.382-14.225 11.747 0 6.457 3.168 9.02 7.163 11.234 3.35 1.885 10.614 3.28 10.614 7.338 0 2.44-1.09 3.834-5.086 3.834-3.29 0-6.68-1.62-9.04-3.506l-4.54 6.233c3.834 2.992 7.89 5.062 13.42 5.062 8.675 0 14.042-4.49 14.042-12.177z" fill="#000"/></symbol><symbol viewBox="0 0 600 600" fill="none" id="logo10"><path d="M144.64 285.332c4.685 0 7.274 3.12 7.274 8.137v23.304h-8.63v-20.86c0-2.14-.617-3.485-2.343-3.485-1.663 0-2.897 1.283-2.897 5.014v19.33h-8.63v-20.86c0-2.14-.615-3.485-2.342-3.485-1.663 0-2.834 1.283-2.834 5.076v19.268h-8.695v-30.95h7.152l.8 5.444c.866-3.732 3.58-5.934 7.154-5.934 3.637 0 5.98 2.446 6.72 5.566 1.047-3.182 3.698-5.566 7.274-5.566v-.002zm31.38 23.98c0 1.1.494 1.468 1.11 1.468.37 0 .68-.062 1.048-.306l.247 5.626c-1.047.674-2.464 1.102-4.068 1.102-1.85 0-3.638-.673-4.81-2.14-.432-.49-.74-1.102-.985-1.775-.802 2.325-3.268 3.855-6.165 3.855-4.748 0-7.646-3.426-7.646-8.808 0-6.486 4.44-9.788 10.36-9.788.984 0 1.972.122 2.648.305v-4.16c0-1.528-.492-2.874-2.094-2.874-1.666 0-2.344 1.653-2.16 4.466l-7.767-1.284c.186-5.627 3.946-9.666 10.42-9.666 6.535 0 9.864 3.12 9.864 9.604v14.376zm-8.262-5.69c-.308-.12-.8-.183-1.294-.183-2.282 0-3.7 1.468-3.7 4.28 0 2.387.986 3.672 2.465 3.672 1.54 0 2.528-1.163 2.528-3.427v-4.342zm21.147-12.417c.923-3.67 3.698-5.873 7.397-5.873 4.685 0 7.337 3.182 7.337 8.442v23h-8.632V295.79c0-2.016-.618-3.36-2.343-3.36-1.79 0-3.02 1.528-3.02 5.076v19.268h-8.694v-30.95h7.152l.802 5.382zm38.84 18.107c0 1.1.492 1.468 1.11 1.468.37 0 .676-.062 1.046-.306l.25 5.626c-1.05.674-2.468 1.102-4.07 1.102-1.85 0-3.64-.673-4.81-2.14-.43-.49-.74-1.102-.985-1.775-.802 2.325-3.268 3.855-6.166 3.855-4.748 0-7.646-3.426-7.646-8.808 0-6.486 4.44-9.788 10.358-9.788.987 0 1.974.122 2.65.305v-4.16c0-1.528-.492-2.874-2.095-2.874-1.664 0-2.343 1.653-2.16 4.466l-7.766-1.284c.187-5.627 3.947-9.666 10.42-9.666 6.534 0 9.864 3.12 9.864 9.604v14.376zm-8.262-5.69c-.31-.12-.802-.183-1.295-.183-2.28 0-3.7 1.468-3.7 4.28 0 2.387.988 3.672 2.467 3.672 1.542 0 2.528-1.163 2.528-3.427v-4.342zm22.936 23.613c-6.477 0-11.346-2.325-11.346-6.85 0-2.998 2.343-5.018 5.364-5.447-2.16-.733-3.823-2.445-3.823-5.198 0-2.813 1.91-4.71 4.376-5.69-2.772-1.713-4.56-4.648-4.56-8.5 0-6.303 4.56-10.216 10.79-10.216 2.034 0 3.882.427 5.485 1.222.616-1.162.925-2.63.988-4.71l6.595 1.835c-.185 2.57-2.033 4.894-4.13 5.812 1.232 1.65 1.91 3.732 1.91 6.057 0 6.238-4.684 10.15-10.85 10.15-1.23 0-2.342-.12-3.452-.426-.493.367-.802.918-.802 1.47 0 1.037.925 1.466 2.22 1.466h4.993c6.474 0 9.927 3.366 9.927 8.38 0 6.79-5.795 10.645-13.687 10.645h.002zm.552-5.69c3.268 0 5.61-1.1 5.61-3.303 0-1.468-1.048-2.324-3.02-2.324h-4.748c-1.725 0-2.898.98-2.898 2.57 0 2.08 2.096 3.058 5.056 3.058zm.247-21.226c1.725 0 2.527-1.714 2.527-4.773 0-3.118-.802-4.83-2.528-4.83-1.728 0-2.53 1.712-2.53 4.832 0 3.056.802 4.77 2.53 4.77zm27.68 5.932l7.398 1.407c-.863 5.872-4.5 9.604-10.11 9.604-7.336 0-11.53-5.934-11.53-15.967 0-9.48 4.008-15.965 11.653-15.965 6.967 0 10.236 5.69 10.236 13.03 0 1.346-.125 2.875-.372 4.71h-13.316c-.062 5.2 1.047 7.953 3.33 7.953 1.848 0 2.527-2.142 2.712-4.773zm-.123-7.89c.06-.43.06-.856.06-1.285 0-2.937-.554-5.566-2.65-5.566-2.157 0-3.143 2.937-3.268 6.852h5.857zm26.694-3.426a6.054 6.054 0 0 0-2.28-.427c-3.328 0-4.81 2.323-4.81 5.994v16.27h-8.69v-30.95h7.027l.863 6.056c.74-4.466 3.822-6.913 8.2-6.364l-.31 9.42zm42.356-9.604c4.685 0 7.274 3.12 7.274 8.137v23.304h-8.63v-20.86c0-2.14-.617-3.485-2.344-3.485-1.664 0-2.897 1.283-2.897 5.014v19.33h-8.632v-20.86c0-2.14-.616-3.485-2.343-3.485-1.664 0-2.835 1.283-2.835 5.076v19.268h-8.693v-30.95h7.15l.802 5.444c.863-3.732 3.575-5.934 7.152-5.934 3.637 0 5.98 2.446 6.718 5.566 1.048-3.182 3.7-5.566 7.276-5.566v-.002zm31.38 23.98c0 1.1.494 1.468 1.11 1.468.37 0 .678-.062 1.048-.306l.246 5.626c-1.048.674-2.465 1.102-4.07 1.102-1.85 0-3.636-.673-4.807-2.14-.432-.49-.74-1.102-.987-1.775-.8 2.325-3.268 3.855-6.164 3.855-4.747 0-7.645-3.426-7.645-8.808 0-6.486 4.44-9.788 10.357-9.788.986 0 1.973.122 2.652.305v-4.16c0-1.528-.495-2.874-2.096-2.874-1.666 0-2.345 1.653-2.16 4.466l-7.767-1.284c.185-5.627 3.945-9.666 10.42-9.666 6.534 0 9.864 3.12 9.864 9.604v14.376zm-8.26-5.69c-.31-.12-.802-.183-1.296-.183-2.28 0-3.698 1.468-3.698 4.28 0 2.387.985 3.672 2.466 3.672 1.54 0 2.528-1.163 2.528-3.427v-4.342zm22.934 23.613c-6.474 0-11.345-2.325-11.345-6.85 0-2.998 2.343-5.018 5.364-5.447-2.158-.733-3.824-2.445-3.824-5.198 0-2.813 1.912-4.71 4.378-5.69-2.775-1.713-4.562-4.648-4.562-8.5 0-6.303 4.562-10.216 10.79-10.216 2.033 0 3.883.427 5.486 1.222.616-1.162.925-2.63.986-4.71l6.597 1.835c-.185 2.57-2.034 4.894-4.13 5.812 1.233 1.65 1.912 3.732 1.912 6.057 0 6.238-4.685 10.15-10.85 10.15-1.234 0-2.345-.12-3.454-.426-.492.367-.8.918-.8 1.47 0 1.037.924 1.466 2.218 1.466h4.994c6.474 0 9.925 3.366 9.925 8.38 0 6.79-5.795 10.645-13.685 10.645zm.553-5.69c3.268 0 5.612-1.1 5.612-3.303 0-1.468-1.048-2.324-3.02-2.324h-4.75c-1.725 0-2.896.98-2.896 2.57 0 2.08 2.095 3.058 5.053 3.058zm.248-21.226c1.726 0 2.528-1.714 2.528-4.773 0-3.118-.802-4.83-2.527-4.83s-2.527 1.712-2.527 4.832c0 3.056.802 4.77 2.528 4.77zm34.834 8.992c0 1.1.493 1.468 1.11 1.468.37 0 .677-.062 1.047-.306l.247 5.626c-1.048.674-2.466 1.102-4.067 1.102-1.85 0-3.64-.673-4.81-2.14-.432-.49-.74-1.102-.986-1.775-.8 2.325-3.267 3.855-6.165 3.855-4.748 0-7.646-3.426-7.646-8.808 0-6.486 4.438-9.788 10.357-9.788.99 0 1.974.122 2.653.305v-4.16c0-1.528-.493-2.874-2.097-2.874-1.664 0-2.342 1.653-2.158 4.466l-7.767-1.284c.185-5.627 3.945-9.666 10.42-9.666 6.534 0 9.864 3.12 9.864 9.604v14.376zm-8.26-5.69c-.31-.12-.803-.183-1.296-.183-2.282 0-3.7 1.468-3.7 4.28 0 2.387.986 3.672 2.466 3.672 1.54 0 2.53-1.163 2.53-3.427v-4.342zm22.5 6.607h9.803v6.544h-19.294v-5.81l9.556-18.597h-9.434v-6.544h18.926v5.81l-9.556 18.598zm17.448-27.1c-2.835 0-4.994-1.896-4.994-4.772 0-2.814 2.16-4.71 4.994-4.71 2.835 0 4.994 1.896 4.994 4.71 0 2.876-2.16 4.774-4.994 4.774v-.002zm4.378 2.69v30.954h-8.693v-30.95h8.693v-.003zm12.145 5.385c.924-3.67 3.7-5.873 7.4-5.873 4.684 0 7.335 3.182 7.335 8.442v23h-8.633V295.79c0-2.016-.616-3.36-2.342-3.36-1.787 0-3.02 1.528-3.02 5.076v19.268h-8.693v-30.95h7.15l.803 5.382z" fill="#000"/></symbol><symbol viewBox="0 0 600 600" fill="none" id="logo11"><path d="M307.45 325.132c-.398.29-.876.598-1.364.936-.488.33-.976.688-1.405 1.066-.417.38-.766.777-.985 1.216-.21.428-.29.897-.17 1.395.02.09.05.18.07.27.03.088.06.168.09.258s.06.17.1.26c.04.08.07.158.11.248-.32.48-.59.967-.858 1.416-.27.448-.518.876-.817 1.235-.3.36-.637.65-1.056.858-.418.2-.916.3-1.544.28a6.65 6.65 0 0 1-1.774-.32 8.387 8.387 0 0 1-1.653-.737 14.16 14.16 0 0 1-1.565-1.025 28.136 28.136 0 0 1-1.494-1.206.793.793 0 0 0-.04-.18c-.01-.06-.03-.12-.04-.18-.02-.06-.03-.12-.05-.18a3.59 3.59 0 0 1-.06-.188 5.21 5.21 0 0 0-.617-1.246 6.4 6.4 0 0 0-.907-1.036 11.46 11.46 0 0 0-1.086-.867 20.64 20.64 0 0 0-1.165-.737c0 .01.008.02.008.03.01.01.02.02.02.03 0 .01.01.02.01.03.01.01.01.02.02.04.02.07.04.14.06.22.02.07.04.138.07.218.02.08.04.15.06.22.03.08.05.15.08.218a12.942 12.942 0 0 0 1.723 3.338 13.803 13.803 0 0 0 2.492 2.67 13.14 13.14 0 0 0 3.03 1.873c1.085.47 2.23.767 3.386.827a7.173 7.173 0 0 0 3.288-.558 7.152 7.152 0 0 0 2.66-1.992c.757-.897 1.315-2.003 1.624-3.248.31-1.286.35-2.71.03-4.195l-.28-1.255zM261.002 267.025c-.12.06-.24.11-.37.17-.12.06-.238.12-.358.19l-.358.208c-.12.07-.24.15-.36.23-.657.428-1.264.856-1.842 1.315-.568.448-1.106.926-1.604 1.464a12.075 12.075 0 0 0-1.415 1.853 16.637 16.637 0 0 0-1.265 2.46c1.115-.158 2.24-.158 3.387 0 1.156.16 2.312.47 3.487.938 1.186.468 2.37 1.096 3.557 1.873a29.45 29.45 0 0 1 3.578 2.8l-4.753-14.048c-.14.03-.28.07-.428.11-.14.04-.28.08-.418.13-.14.048-.28.098-.42.148-.15.04-.28.1-.418.16zM264.847 266.26l4.663 13.68 10.362.148c-1.096-2.172-2.262-4.124-3.487-5.828-1.216-1.684-2.48-3.13-3.766-4.304-1.277-1.166-2.582-2.063-3.897-2.69-1.285-.608-2.59-.957-3.876-1.007zM270.994 284.262c1.594 1.883 3.158 4.045 4.673 6.447 1.534 2.43 3.01 5.11 4.414 8.03 1.415 2.938 2.76 6.126 4.016 9.514a132.546 132.546 0 0 1 3.457 10.86c.08-1.664.1-3.368.06-5.112a87.977 87.977 0 0 0-.27-5.29 85.902 85.902 0 0 0-.597-5.41 95.54 95.54 0 0 0-.937-5.45 72.52 72.52 0 0 0-.818-3.577 75.436 75.436 0 0 0-.936-3.407 69.07 69.07 0 0 0-1.036-3.228 72.88 72.88 0 0 0-1.126-3.04l-10.9-.338zM247.512 183.544c.298 2.81.637 5.66 1.006 8.53.368 2.878.777 5.787 1.215 8.726a451.576 451.576 0 0 0 3.11 17.994c.776 3.995 1.593 7.9 2.46 11.727a357.573 357.573 0 0 0 2.7 11.23 332.288 332.288 0 0 0 2.93 10.67 288.23 288.23 0 0 0 3.117 10.043c.46-.07.927-.11 1.395-.11.47.01.937.05 1.415.12.468.08.947.19 1.425.348.478.15.946.35 1.425.57a294.51 294.51 0 0 1-3.2-7.942 265.89 265.89 0 0 1-3.067-8.33c-.997-2.828-1.973-5.718-2.93-8.687a459.15 459.15 0 0 1-2.77-9.015 390.01 390.01 0 0 1-3.277-11.946 378.802 378.802 0 0 1-2.78-11.658 350.87 350.87 0 0 1-2.31-11.328 325.67 325.67 0 0 1-1.864-10.94zM339.862 241.97c-.608.1-1.215.22-1.823.34-.61.128-1.207.268-1.814.417-.598.15-1.196.32-1.794.488-.598.18-1.185.37-1.773.568l-1.944 17.356a78.993 78.993 0 0 1 6.147-6.228 73.314 73.314 0 0 1 6.526-5.25c2.21-1.575 4.483-3 6.814-4.265a63.08 63.08 0 0 1 7.054-3.288 25.11 25.11 0 0 0-4.085-.897c-1.355-.18-2.69-.25-4.055-.24-1.375.01-2.78.12-4.254.28-1.485.16-3.04.388-4.683.647-.03 0-.05.01-.08.01-.03.01-.05.01-.078.01-.02 0-.05.01-.08.01-.02.03-.05.03-.08.04zM325.037 268.34l-25.207 12.524a54.45 54.45 0 0 0-.857 4.224c-.23 1.435-.39 2.89-.508 4.344-.11 1.465-.16 2.95-.14 4.434.02 1.494.1 3 .26 4.503.23 2.25.607 4.443 1.125 6.565a46.33 46.33 0 0 0 1.953 6.167 45.162 45.162 0 0 0 2.73 5.68 43.244 43.244 0 0 0 3.437 5.11c.1-5.22.618-10.362 1.495-15.353a98.443 98.443 0 0 1 3.616-14.22 96.782 96.782 0 0 1 5.352-12.79 91.394 91.394 0 0 1 6.745-11.19zM317.433 163.23c.837 3.127 1.505 6.375 2.043 9.743.538 3.407.956 6.944 1.255 10.61.32 3.707.53 7.563.69 11.538.158 4.046.248 8.23.317 12.555.17 10.033-.587 18.143-1.913 24.898-1.365 6.974-3.307 12.444-5.45 17.057-2.2 4.742-4.573 8.548-6.705 12.175-2.173 3.696-4.086 7.173-5.27 11.228-.04.11-.09.21-.12.31-.05.11-.09.21-.13.308-.04.11-.09.21-.13.31-.04.11-.08.21-.12.31l23.833-11.46v-.02l.01-.01a231.48 231.48 0 0 0 2.44-21.47 209.28 209.28 0 0 0 .42-18.212c-.12-5.52-.45-10.66-.918-15.383a191.22 191.22 0 0 0-1.693-12.783 180.35 180.35 0 0 0-1.644-8.588c-.608-2.77-1.276-5.49-1.993-8.13-.717-2.62-1.484-5.19-2.31-7.692a147.848 147.848 0 0 0-2.612-7.293zM231.083 395.262c-9.554 0-13.85-4.772-13.85-10.99l.48-.478h5.728l.48.48c0 3.346 1.913 5.25 7.64 5.25 4.296 0 6.687-1.436 6.687-4.295 0-3.35-1.913-4.295-8.598-5.252-6.687-.956-11.937-3.337-11.937-10.023 0-4.772 3.825-9.076 12.892-9.076 9.066 0 12.892 4.293 12.892 10.032l-.478.478h-5.73l-.478-.478c0-2.87-1.435-4.294-6.685-4.294-4.294 0-5.73 1.434-5.73 3.347 0 2.87 1.914 3.816 8.6 4.773 6.684.956 11.935 3.826 11.935 10.51 0 5.242-3.816 10.014-13.85 10.014zM261.172 395.263c-4.294 0-6.207-2.39-6.207-2.39h-.478v10.988l-.478.48h-5.73l-.478-.48v-32.48l.478-.477h5.25l.48.478.477 1.436h.478s1.913-2.39 6.207-2.39c5.73 0 10.512 4.77 10.512 12.413 0 7.64-4.783 12.423-10.512 12.423zm-1.434-19.1c-3.826 0-5.25 2.87-5.25 6.686 0 3.825 1.434 6.684 5.25 6.684s5.25-2.87 5.25-6.685c.01-3.827-1.424-6.687-5.25-6.687zM289.825 376.64h-3.348c-3.825 0-5.25 1.913-5.25 6.207v11.468l-.478.478h-5.73l-.48-.478V371.39l.48-.48h5.25l.48.48.477 1.434h.478s.956-1.913 5.25-1.913h2.87l.478.48v4.772l-.478.478zM307.5 395.26c-1.912 4.774-3.815 7.643-10.51 7.643h-2.392l-.478-.478v-4.772l.478-.48h2.39c2.393 0 2.87-.477 3.35-1.912v-.477l-7.643-18.63v-4.773l.48-.48h4.293l.478.48 5.73 16.24h.477l5.73-16.24.477-.48h4.294l.478.48v4.772l-7.63 19.11zM338.547 394.784h-2.87l-.956-.478-6.684-7.164h-.48l-2.868 2.87-.478.956v3.348l-.478.478h-5.73l-.478-.478v-32.48l.48-.478h5.728l.478.478v19.1h.478l9.555-9.555.956-.478h2.87l.477.48v4.77l-5.73 5.73v.478l6.208 7.164v4.772l-.478.488zM363.374 384.76l-.478.48H348.09l-.477.478c0 .956.956 3.816 4.772 3.816 1.435 0 2.87-.478 3.348-1.435l.478-.48h5.73l.478.48c-.478 2.87-2.87 7.163-10.033 7.163-8.12 0-11.936-5.73-11.936-12.414 0-6.687 3.825-12.416 11.467-12.416 7.64 0 11.457 5.73 11.457 12.415v1.91zm-7.163-4.78c0-.48-.477-3.817-4.293-3.817-3.826 0-4.294 3.348-4.294 3.816l.478.477h7.643l.468-.478zM382.005 376.64h-3.347c-3.826 0-5.25 1.913-5.25 6.207v11.468l-.48.478H367.2l-.478-.478V371.39l.478-.48h5.25l.48.48.477 1.434h.478s.957-1.913 5.25-1.913h2.87l.478.48v4.772l-.478.478z" fill="#000"/></symbol><symbol viewBox="0 0 600 600" fill="none" id="logo12"><path d="M294.775 255.684h-88.718v24.05h88.718v-24.05zM294.775 287.976h-56.51v24.05h56.51v-24.05zM294.774 320.098H128.386v24.05h166.388v-24.05zM318.143 274.804c-1.36 1.36-3.4 1.87-5.524 1.87-1.87 0-3.825-.51-5.27-1.785-1.02-.936-1.87-2.38-1.87-4.08h3.23c0 .85.425 1.614.935 2.124.765.765 1.954.935 2.974.935 1.19 0 2.38-.256 3.058-.936.425-.425.68-.85.68-1.7 0-1.274-1.02-1.87-2.04-2.04-1.19-.254-2.72-.254-3.908-.51-2.38-.424-4.42-1.953-4.42-4.927 0-1.36.596-2.55 1.53-3.485 1.19-1.104 3.06-1.87 5.1-1.87 1.87 0 3.738.596 4.928 1.7 1.02 1.02 1.784 2.295 1.784 3.74h-3.23c0-.595-.34-1.275-.764-1.7-.594-.595-1.7-.935-2.634-.935-1.02 0-2.124.255-2.804.935-.34.425-.595.85-.595 1.445 0 1.104.765 1.7 1.785 1.87 1.104.17 2.634.254 3.824.424 2.634.34 4.843 2.04 4.843 5.1-.17 1.784-.764 2.89-1.614 3.824zM326.897 276.504c-2.635 0-3.91-1.445-3.91-3.994v-6.544h-2.38v-2.55h2.38v-3.228l3.06-.765v3.994h3.23v2.55h-3.23v6.288c0 1.02.425 1.444 1.444 1.444.68 0 1.19 0 2.04-.086v2.635c-.85.084-1.7.254-2.633.254zM331.655 261.717v-3.144h3.314v3.144h-3.315zm.085 14.617v-12.832h3.144v12.832h-3.144zM343.213 260.698c-1.105 0-1.7.68-1.7 1.53v1.19h3.4v2.548h-3.4v10.283h-3.06v-10.2h-2.21v-2.548h2.21v-1.275c0-2.38 1.615-4.08 4.335-4.08.85 0 1.444.086 2.38.256v2.464c-.596-.084-1.19-.17-1.955-.17zM352.22 276.504c-2.634 0-3.908-1.445-3.908-3.994v-6.544h-2.38v-2.55h2.38v-3.228l3.06-.765v3.994h3.228v2.55h-3.23v6.288c0 1.02.426 1.444 1.446 1.444.68 0 1.19 0 2.04-.086v2.635c-.85.084-1.7.254-2.635.254zM365.22 276.333l-.254-1.7c-.595 1.276-2.04 2.04-3.654 2.04-2.72 0-4.42-1.87-4.42-4.588v-8.583h3.06v7.903c0 1.53.595 2.464 2.21 2.464.68 0 1.19-.256 1.614-.68.765-.68.935-1.87.935-2.89v-6.798h3.06v12.83h-2.55zM377.97 276.333v-7.903c0-1.53-.51-2.38-2.125-2.38-1.105 0-1.784.68-2.21 1.616-.424 1.02-.424 2.38-.424 3.4v5.267h-3.06v-12.83h2.636l.255 1.613c.766-1.36 2.295-1.954 3.74-1.954 2.72 0 4.334 1.954 4.334 4.59v8.58h-3.144zM389.357 282.282c-1.53 0-3.23-.085-4.504-1.02-1.02-.68-1.53-1.614-1.53-2.804 0-1.105.51-2.125 1.53-2.634-.85-.425-1.275-1.36-1.275-2.21 0-1.105.51-1.954 1.53-2.634a4.424 4.424 0 0 1-1.275-3.144c0-3.06 2.38-4.76 5.27-4.76 1.02 0 2.038.256 2.888.766.51-1.105 1.53-1.615 2.635-1.615.17 0 .68 0 .85.085v2.38h-.255c-.68 0-1.36.17-1.53.85.426.68.68 1.444.68 2.294 0 2.974-2.464 4.673-5.268 4.673-.68 0-1.445-.086-2.04-.34-.255.17-.68.51-.68.934 0 .765.765.935 1.445.935h2.125c1.274 0 2.974 0 4.164.85 1.104.764 1.53 1.868 1.53 3.058-.086 3.484-3.4 4.334-6.29 4.334zm.17-5.78h-2.38c-.68.17-1.19.766-1.19 1.616 0 1.615 2.04 1.785 3.23 1.785 1.274 0 3.4-.085 3.4-1.785.084-1.615-1.87-1.615-3.06-1.615zm-.51-11.046c-1.445 0-2.295 1.02-2.295 2.38 0 1.36.85 2.38 2.295 2.38 1.444 0 2.294-1.02 2.294-2.38 0-1.36-.934-2.38-2.293-2.38zM316.784 308.456l-7.563-12.067v12.066h-3.143V290.95h3.4l7.477 11.897V290.95h3.144v17.506h-3.314zM334.375 303.017h-8.583c0 1.02.34 1.954.935 2.55.424.424 1.02.764 1.87.764.85 0 1.444-.17 1.87-.594.254-.255.51-.595.594-1.105h2.975c-.085.766-.595 1.786-1.105 2.38-1.105 1.275-2.72 1.785-4.334 1.785-1.784 0-3.06-.595-4.08-1.614-1.274-1.274-1.953-3.058-1.953-5.098s.594-3.91 1.87-5.1c.934-1.018 2.38-1.613 4.078-1.613 1.87 0 3.655.763 4.675 2.378.935 1.445 1.19 2.89 1.105 4.504.085-.17.085.425.085.765zm-3.824-4.504c-.424-.425-1.02-.765-1.954-.765-.935 0-1.7.425-2.124 1.02-.425.595-.68 1.19-.68 2.04h5.523c0-1.02-.34-1.785-.764-2.295zM344.913 308.456l-.255-1.7c-.595 1.275-2.04 2.04-3.654 2.04-2.72 0-4.42-1.87-4.42-4.59v-8.582h3.06v7.903c0 1.53.595 2.464 2.21 2.464.68 0 1.19-.254 1.614-.678.765-.68.935-1.87.935-2.89v-6.798h3.06v12.832h-2.55zM361.737 303.017h-8.583c0 1.02.34 1.954.935 2.55.424.424 1.02.764 1.87.764.85 0 1.443-.17 1.868-.594.255-.255.51-.595.595-1.105h2.974c-.085.766-.594 1.786-1.104 2.38-1.105 1.275-2.72 1.785-4.334 1.785-1.786 0-3.06-.595-4.08-1.614-1.275-1.274-1.955-3.058-1.955-5.098s.595-3.91 1.87-5.1c.935-1.018 2.38-1.613 4.08-1.613 1.868 0 3.653.763 4.673 2.378.934 1.445 1.19 2.89 1.104 4.504.085-.17.085.425.085.765zm-3.91-4.504c-.424-.425-1.018-.765-1.953-.765s-1.7.425-2.125 1.02c-.426.595-.68 1.19-.68 2.04h5.523c0-1.02-.255-1.785-.765-2.295zM314.574 340.578h-3.484l-5.78-17.506h3.4l4.25 13.342 4.248-13.342h3.23l-5.864 17.506zM332.165 335.14h-8.668c0 1.02.34 1.954.935 2.548a2.54 2.54 0 0 0 1.87.765c.85 0 1.444-.17 1.87-.595.254-.255.51-.594.594-1.104h2.974c-.085.764-.595 1.784-1.105 2.38-1.105 1.274-2.72 1.784-4.334 1.784-1.783 0-3.058-.595-4.078-1.615-1.274-1.275-1.954-3.06-1.954-5.1 0-2.038.595-3.908 1.87-5.097.934-1.02 2.38-1.615 4.078-1.615 1.87 0 3.654.766 4.674 2.38.935 1.445 1.19 2.89 1.105 4.504.17-.17.17.425.17.765zm-3.91-4.505c-.424-.425-1.02-.765-1.954-.765-.933 0-1.698.425-2.123 1.02-.425.595-.68 1.19-.68 2.04h5.524c0-1.02-.254-1.785-.764-2.295zM341.003 330.465c-2.21 0-3.314 1.53-3.314 3.654v6.458h-3.146v-12.832h2.635l.254 1.955c.595-1.444 2.124-2.124 3.654-2.124.34 0 .68 0 .935.085v2.975c-.34-.17-.68-.17-1.02-.17zM353.58 340.748c-1.36 0-2.04-.85-2.21-1.785-.595 1.02-2.04 1.955-3.91 1.955-3.058 0-4.673-1.955-4.673-3.994 0-2.465 1.87-3.824 4.334-3.994l3.74-.255v-.765c0-1.19-.425-2.04-2.21-2.04-1.444 0-2.294.68-2.38 1.87h-2.973c.17-2.89 2.464-4.164 5.354-4.164 2.21 0 4.08.68 4.844 2.634.34.85.34 1.7.34 2.635v4.76c0 .593.17.848.68.848.17 0 .425-.085.425-.085v2.295c-.34 0-.596.085-1.36.085zm-2.55-5.864l-3.23.255c-.934.084-1.87.68-1.87 1.7s.85 1.613 1.87 1.613c1.955 0 3.315-1.02 3.315-2.974v-.596h-.085zM365.222 340.578v-7.903c0-1.53-.51-2.38-2.124-2.38-1.105 0-1.785.68-2.21 1.615-.425 1.02-.425 2.38-.425 3.4v5.268h-3.06v-12.832h2.635l.255 1.614c.765-1.36 2.295-1.954 3.74-1.954 2.72 0 4.333 1.954 4.333 4.59v8.582h-3.144zM376.015 340.748c-2.635 0-3.91-1.445-3.91-3.994v-6.544h-2.38v-2.55h2.38v-3.228l3.06-.765v3.994h3.23v2.55h-3.23v6.29c0 1.018.425 1.443 1.445 1.443.68 0 1.19 0 2.04-.085v2.635c-.85.085-1.7.255-2.635.255zM395.22 340.577h-2.89l-2.89-8.667-2.888 8.667h-2.89l-3.23-12.83h2.976l2.04 8.412 2.718-8.33h2.55l2.72 8.244 1.954-8.413h2.974l-3.144 12.917zM410.345 338.878c-.85 1.105-2.55 2.04-4.504 2.04-1.954 0-3.568-.935-4.503-2.04-.935-1.19-1.53-2.55-1.53-4.76 0-2.208.51-3.568 1.53-4.758.85-1.104 2.55-2.04 4.504-2.04 1.955 0 3.57.936 4.505 2.04.934 1.19 1.53 2.55 1.53 4.76s-.596 3.568-1.53 4.758zm-2.55-7.988c-.425-.425-1.105-.85-1.954-.85-.85 0-1.53.34-1.954.85-.765.85-.935 2.04-.935 3.23s.17 2.38.936 3.228c.425.425 1.105.85 1.955.85.85 0 1.53-.34 1.955-.85.765-.85.935-2.04.935-3.23s-.17-2.378-.935-3.228zM420.287 330.465c-2.21 0-3.314 1.53-3.314 3.654v6.458h-3.145v-12.832h2.635l.255 1.955c.595-1.444 2.124-2.124 3.654-2.124.34 0 .68 0 .935.085v2.975c-.34-.17-.68-.17-1.02-.17zM428.702 340.748c-2.635 0-3.91-1.445-3.91-3.994v-6.544h-2.38v-2.55h2.38v-3.228l3.06-.765v3.994h3.23v2.55h-3.23v6.29c0 1.018.425 1.443 1.444 1.443.68 0 1.19 0 2.04-.085v2.635c-.85.085-1.7.255-2.634.255zM442.127 340.578l-.255-1.7c-.595 1.275-2.04 2.04-3.654 2.04-2.72 0-4.42-1.87-4.42-4.59v-8.582h3.06v7.903c0 1.528.595 2.463 2.21 2.463.68 0 1.19-.255 1.614-.68.765-.68.935-1.87.935-2.89v-6.797h3.06v12.832h-2.55zM455.385 340.578v-7.903c0-1.53-.51-2.38-2.125-2.38-1.104 0-1.784.68-2.21 1.615-.424 1.02-.424 2.38-.424 3.4v5.268h-3.06v-12.832h2.635l.256 1.614c.765-1.36 2.294-1.954 3.74-1.954 2.718 0 4.333 1.954 4.333 4.59v8.582h-3.145zM466.262 346.526c-1.53 0-3.23-.085-4.504-1.02-1.02-.68-1.53-1.614-1.53-2.804 0-1.105.51-2.124 1.53-2.634-.85-.425-1.275-1.36-1.275-2.21 0-1.104.51-1.954 1.53-2.634a4.424 4.424 0 0 1-1.275-3.144c0-3.06 2.38-4.76 5.27-4.76 1.02 0 2.038.256 2.888.766.51-1.105 1.53-1.615 2.634-1.615.17 0 .68 0 .85.086v2.38h-.255c-.68 0-1.36.17-1.53.85.426.68.68 1.444.68 2.294 0 2.974-2.464 4.674-5.268 4.674-.68 0-1.445-.085-2.04-.34-.255.17-.68.51-.68.934 0 .765.765.935 1.445.935h2.125c1.274 0 2.974 0 4.164.85 1.105.765 1.53 1.87 1.53 3.06-.085 3.483-3.4 4.333-6.288 4.333zm.255-5.778h-2.38c-.68.17-1.19.764-1.19 1.614 0 1.615 2.04 1.785 3.23 1.785 1.275 0 3.4-.085 3.4-1.785 0-1.614-1.87-1.614-3.06-1.614zm-.595-11.048c-1.445 0-2.295 1.02-2.295 2.38 0 1.36.85 2.38 2.295 2.38 1.445 0 2.294-1.02 2.294-2.38 0-1.36-.85-2.38-2.294-2.38z" fill="#000"/></symbol></svg>